<svg xmlns="http://www.w3.org/2000/svg" xml:space="preserve" width="64" height="64" viewBox="0 0 64 64">
	<path d="M57.788 14.031H52.5V5.97a4 4 0 0 0-4-4h-33a4 4 0 0 0-4 4v8.062H6.212A6.22 6.22 0 0 0 0 20.243v26.27a6.22 6.22 0 0 0 6.212 6.213h2.38a1 1 0 1 0 0-2h-2.38A4.217 4.217 0 0 1 2 46.514v-26.27a4.217 4.217 0 0 1 4.212-4.213h51.576A4.217 4.217 0 0 1 62 20.243v26.27a4.217 4.217 0 0 1-4.212 4.213H56a1 1 0 1 0 0 2h1.788A6.22 6.22 0 0 0 64 46.514v-26.27a6.22 6.22 0 0 0-6.212-6.213zM13.5 5.97c0-1.103.897-2 2-2h33c1.103 0 2 .897 2 2v8h-37v-8z"/>
	<path d="M44 45.032H20a.999.999 0 1 0 0 1.998h24a.999.999 0 1 0 0-1.998zM44 52.032H20a.999.999 0 1 0 0 1.998h24a.999.999 0 1 0 0-1.998z"/>
	<circle cx="7.959" cy="21.841" r="2"/>
	<circle cx="14.286" cy="21.841" r="2"/>
	<circle cx="20.612" cy="21.841" r="2"/>
	<path d="M11 62.031h42v-26H11v26zm2.404-23.596h37.192v21.193H13.404V38.435z"/>
</svg>