<svg xmlns="http://www.w3.org/2000/svg" width="450" height="512"><path d="M8.32 509.828c-8.193-4.055-9.597-10.17-7.376-32.125 4.465-44.135 22.835-84.33 53.173-116.344 33.097-34.925 74.413-55.407 121.99-60.477 12.601-1.342 84.99-1.341 97.579.001 46.598 4.972 88.053 25.18 120.268 58.626 15.464 16.055 25.445 30.282 35.531 50.646 10.364 20.925 16.984 44.018 19.364 67.548 2.191 21.661.698 28.199-7.328 32.084l-4.256 2.06H224.831c-211.044-.001-212.461-.014-216.51-2.019Zm410.576-31.105c0-5.362-4.807-27.163-8.043-36.477-4.505-12.967-14.012-31.512-21.727-42.38-8.285-11.673-25.93-29.718-37.023-37.865-22.538-16.55-48.514-27.028-76.008-30.66-13.593-1.796-85.738-2.116-99.225-.44-31.73 3.942-58.5 14.994-83.546 34.493-10.378 8.08-24.167 22.671-32.675 34.578-7.742 10.834-17.312 29.448-21.733 42.274-3.226 9.357-8.02 31.16-8.02 36.477v3.125h388zm-211-209.9c-29.861-4.196-56.75-17.6-78.063-38.912-19.996-19.996-31.486-41.44-37.609-70.189-2.482-11.658-2.482-38.091 0-49.75 6.124-28.755 17.632-50.249 37.59-70.207C166.062 3.517 217.256-8.958 266.248 6.518c40.287 12.727 74.263 46.728 87.008 87.074 4.9 15.512 6.097 23.626 6.084 41.256-.013 17.562-1.233 25.796-6.135 41.38-12.39 39.4-46.03 73.493-85.309 86.46-17.608 5.814-43.47 8.459-60 6.136zm41.636-31.865c38.172-9.502 67.91-39.415 77.656-78.11 3.063-12.165 3.063-35.836 0-48-8.177-32.467-30.735-59.364-60.579-72.23-15.012-6.472-23.81-8.202-41.713-8.202-12.702 0-17.101.402-24.374 2.226-37.817 9.49-67.216 38.435-77.398 76.206-2.228 8.262-2.569 11.584-2.618 25.5-.066 18.437 1.586 26.987 8.135 42.117 12.912 29.826 40.59 53.125 71.755 60.4 11.8 2.756 12.798 2.845 27.5 2.466 9.184-.237 16.102-.996 21.636-2.373z" style="fill:#000"/></svg>