
<svg viewBox="0 -13 50 60" xmlns="http://www.w3.org/2000/svg"><path d="M.97 33.763c-.204-.1-.506-.36-.67-.575-.245-.32-.3-.51-.3-1.035 0-.695.186-1.055.77-1.49.301-.226.44-.232 6.888-.262l6.58-.03.031-5.687c.03-5.545.037-5.695.261-5.995a3.2 3.2 0 0 1 .539-.539c.302-.226.441-.231 6.889-.26l6.58-.031.031-6.581c.03-6.448.035-6.587.261-6.89.127-.169.37-.411.539-.538.303-.226.436-.23 7.402-.26l7.093-.03-.452-.514c-.752-.854-.755-1.753-.01-2.498.479-.48.973-.631 1.648-.507.355.066.752.41 2.617 2.275 2.368 2.368 2.45 2.494 2.274 3.454-.065.356-.41.752-2.274 2.617-1.865 1.864-2.262 2.21-2.617 2.274-.675.125-1.17-.027-1.648-.506-.746-.746-.742-1.644.012-2.5l.454-.516H32.124l-.03 6.572-.031 6.572-.301.395c-.6.786-.346.76-7.505.76h-6.432l-.031 5.679-.031 5.679-.3.394c-.608.795-.224.761-8.598.758-6.738-.002-7.563-.021-7.895-.185z" style="stroke-width:1"/></svg>