<svg xmlns="http://www.w3.org/2000/svg" width="681.333" height="681.333"><path d="M127.968 678.34c-13.66-3.606-22.073-8.523-33.054-19.32-10.373-10.199-17.678-23.23-20.404-36.398-.99-4.784-1.463-41.5-1.463-113.667V402.354h-9.053c-31.93 0-57.957-21.826-63.198-53-2.075-12.347-.072-25.446 5.763-37.667 3.821-8.005 15.338-19.867 150.98-155.509C328.688-14.973 310.64.354 341.037.354c30.42 0 12.36-15.334 183.518 155.824 171.155 171.155 155.825 153.1 155.825 183.51 0 17.867-.048 18.153-4.573 27.36-10.703 21.78-32.796 35.306-57.664 35.306h-9.009l-.377 110.333-.377 110.334-3.564 9.172c-9.451 24.325-28.92 41.358-53.492 46.799-8.183 1.812-18.66 2.07-70.515 1.745-59.123-.372-61.01-.463-64.584-3.132-2.024-1.512-4.918-4.405-6.43-6.43-2.696-3.61-2.762-5.4-3.415-92.69l-.667-89.01-4.048-6.56c-4.55-7.376-14.73-14.346-22.928-15.701-6.536-1.08-68.846-1.08-75.382 0-8.198 1.355-18.377 8.325-22.928 15.7l-4.047 6.56-.667 89.01c-.654 87.29-.72 89.082-3.416 92.691-1.512 2.025-4.405 4.918-6.43 6.43-3.58 2.675-5.363 2.757-65.917 3.028-57.746.26-62.94.094-71.983-2.293zm107.746-111.92c0-48.948.503-77.031 1.463-81.667 5.178-25.015 25.395-46.647 51.204-54.788 8.828-2.785 11.679-2.944 52.666-2.944 38.277 0 44.267.286 51.334 2.451 26.105 8 45.463 27.925 51.976 53.496 1.691 6.641 2.024 20.271 2.024 83v75.053l47.666-.059c51.264-.063 53.304-.297 62.307-7.164 2.548-1.944 6.297-6.364 8.33-9.822l3.697-6.289.666-120.903c.66-119.508.699-120.945 3.416-124.584 6.42-8.598 8.136-9.12 32.344-9.846 25.755-.772 29.86-2.243 34.812-12.471 3.465-7.157 3.502-13.166.124-20.108-3.777-7.766-282.835-286.55-289.653-289.37-6.671-2.76-12.444-2.581-18.955.586-7.766 3.778-286.55 282.835-289.37 289.654-2.788 6.737-2.576 12.448.71 19.238 4.952 10.228 9.057 11.699 34.813 12.471 24.207.726 25.923 1.248 32.344 9.846 2.717 3.639 2.756 5.076 3.415 124.584l.667 120.903 3.696 6.289c2.033 3.458 5.782 7.878 8.33 9.822 9.003 6.867 11.043 7.101 62.307 7.164l47.667.059z" style="fill:#000;stroke-width:1"/></svg>