
<svg viewBox="0 -5 50 60" xmlns="http://www.w3.org/2000/svg"><path d="M9.4 49.824c-1.004-.265-1.622-.626-2.429-1.419-.761-.75-1.298-1.706-1.498-2.673-.073-.352-.108-3.049-.108-8.35v-7.83H4.7C2.355 29.553.443 27.95.06 25.66c-.153-.907-.006-1.869.423-2.767.28-.588 1.126-1.459 11.09-11.422C24.141-1.099 22.816.026 25.048.026c2.235 0 .908-1.126 13.48 11.445C51.1 24.043 49.974 22.716 49.974 24.951c0 1.311-.003 1.332-.336 2.009-.786 1.6-2.409 2.593-4.235 2.593h-.662l-.028 8.104-.027 8.104-.262.674c-.694 1.786-2.124 3.037-3.93 3.437-.6.133-1.37.152-5.178.128-4.343-.027-4.482-.034-4.744-.23a2.803 2.803 0 0 1-.472-.472c-.198-.265-.203-.397-.251-6.808l-.05-6.538-.297-.482c-.334-.542-1.082-1.054-1.684-1.153-.48-.08-5.056-.08-5.536 0-.603.1-1.35.611-1.685 1.153l-.297.482-.049 6.538c-.048 6.411-.053 6.543-.25 6.808a2.8 2.8 0 0 1-.473.472c-.263.197-.394.203-4.842.223-4.241.019-4.623.006-5.287-.169zm7.913-8.22c0-3.596.037-5.658.108-5.999.38-1.837 1.865-3.426 3.76-4.024.65-.205.858-.216 3.869-.216 2.811 0 3.251.02 3.77.18 1.918.587 3.34 2.05 3.818 3.929.124.488.149 1.489.149 6.096v5.513l3.5-.004c3.766-.005 3.916-.022 4.577-.526.187-.143.463-.468.612-.722l.272-.462.049-8.88c.048-8.778.051-8.884.25-9.15.472-.632.598-.67 2.376-.724 1.892-.057 2.193-.165 2.557-.916.255-.526.257-.967.01-1.477-.278-.57-20.775-21.047-21.276-21.254-.49-.203-.914-.19-1.392.043-.57.277-21.047 20.774-21.254 21.275-.205.495-.19.914.052 1.413.364.751.665.86 2.557.916 1.778.053 1.904.092 2.376.723.2.267.202.373.25 9.15l.05 8.881.27.462c.15.254.426.579.613.722.66.504.81.521 4.576.526l3.501.004z" style="stroke-width:1"/></svg>