<svg xmlns="http://www.w3.org/2000/svg" width="450" height="512"><path d="M73.059 510.22c-21.27-3.289-41.555-14.683-54.438-30.576-6.764-8.344-13.365-21.321-16.174-31.796-3.232-12.048-3.267-31.01-.08-42.83C11.1 372.634 36.162 349.746 71 342.339c1.618-.344 4.543-1.887 6.5-3.43 16.475-12.982 43.802-26.39 66.06-32.41 20.265-5.482 34.328-6.651 80-6.651 50.074 0 65.514 1.653 90 9.638 18.011 5.874 42.546 18.772 56.24 29.566 2.743 2.162 6.09 3.43 12.564 4.755 25.885 5.304 46.3 21.236 58.537 45.682 5.79 11.567 7.659 20.506 7.659 36.63 0 16.873-2.047 26.122-8.586 38.786-10.94 21.19-30.45 36.918-53.455 43.09-11.195 3.004-29.894 3.233-40.96.501-16.715-4.126-35.276-15.771-45.405-28.489-4.615-5.793-6.594-7.367-6.594-5.242 0 2.049-15.638 17.353-22.168 21.694-27.104 18.019-62.059 18.958-89.906 2.414-7.57-4.497-20.083-15.697-24.057-21.532-1.303-1.914-2.636-3.483-2.963-3.487-.327-.004-2.802 2.765-5.5 6.153-10.012 12.57-27.176 23.584-43.544 27.943-7.217 1.922-26.065 3.244-32.362 2.27zm25.04-29.894c20.782-5.306 36.511-21.812 40.955-42.978.809-3.85 1.47-8.8 1.47-11 0-13.51-6.852-29.567-16.881-39.562-8.066-8.038-15.458-12.349-25.642-14.953-19.905-5.091-38.865.203-53.463 14.928-8.678 8.755-12.228 14.83-15.001 25.672-7.657 29.94 10.03 59.92 40.022 67.832 7.287 1.922 21.132 1.952 28.54.06zm-27.04-24.377c-5.688-2.636-23.875-21.537-25.48-26.48-1.704-5.245-.068-10.494 4.527-14.529 2.829-2.483 4.415-3.092 8.053-3.092 5.615 0 7.634 1.01 13.708 6.865l4.809 4.635 3.626-4c12.948-14.285 20.7-21.788 23.883-23.118 10.315-4.31 21.204 5.407 18.21 16.25-1.063 3.848-2.382 5.407-24.207 28.6-10.713 11.386-14.696 14.97-17.5 15.748-4.733 1.315-4.938 1.296-9.63-.879zm173.216 22.7c21.926-7.832 36.284-28.528 36.284-52.301 0-25.063-15.31-45.775-40-54.114-8.223-2.777-24.389-2.588-33 .387-13.211 4.563-22.336 11.413-29.31 22.005-6.449 9.792-8.848 16.968-9.437 28.226-.587 11.23.661 18.191 4.853 27.06 4.246 8.985 10.208 16.345 17.389 21.47 6.622 4.725 8.826 5.776 18.005 8.588 9.003 2.759 25.532 2.139 35.216-1.32zm-31.167-21.855c-3.24-.967-23.795-20.758-26.12-25.147-.786-1.485-1.43-4.32-1.43-6.3 0-7.976 5.853-13.49 14.325-13.496 4.509-.003 5.218.372 10.856 5.747l6.032 5.75 13.144-13.68c10.958-11.405 13.756-13.79 16.829-14.349 4.769-.867 9.77.828 13.292 4.505 3.738 3.901 4.654 11.568 1.896 15.856-1.03 1.602-9.512 11.061-18.848 21.021-19.394 20.69-22.04 22.464-29.976 20.093zm165.99 23.532c20.696-5.284 36.646-21.703 40.988-42.192 1.972-9.305 1.829-16.574-.505-25.701-2.773-10.843-6.323-16.917-15.002-25.672-22.21-22.403-56.152-22.583-78.617-.416-10.528 10.387-17.368 26.143-17.368 40.003 0 2.2.66 7.15 1.47 11 4.396 20.94 20.04 37.52 40.495 42.917 7.287 1.922 21.132 1.952 28.54.06zm-27.04-24.341c-3.9-1.84-22.173-19.65-24.253-23.637-.573-1.1-1.138-3.125-1.255-4.5-.542-6.377.076-8.303 3.891-12.118 3.405-3.405 4.459-3.882 8.566-3.882 5.772 0 7.767.987 13.816 6.841l4.763 4.61 13.237-13.688c11.085-11.464 13.834-13.792 16.92-14.325 10.752-1.857 19.655 8.852 15.533 18.685-1.403 3.345-35.204 39.996-38.527 41.775-3.829 2.049-8.66 2.14-12.69.239zm-196.5-78.134c0-1.802 14.362-16.16 20.656-20.652 14.667-10.466 28.763-14.773 48.345-14.773 19.581 0 33.678 4.307 48.344 14.773 6.295 4.492 20.656 18.85 20.656 20.652 0 2.18 1.816.697 7.17-5.855 6.226-7.623 15.22-14.972 24.182-19.76l5.925-3.166-7.389-3.49c-15.42-7.283-31.462-11.975-48.866-14.292-12.856-1.712-86.084-1.998-99.048-.388-11.408 1.418-21.774 3.605-31.445 6.636-8.738 2.738-25.53 10.173-25.53 11.305 0 .386 1.909 1.559 4.24 2.605 7.219 3.238 19.449 13.03 25.455 20.383 5.478 6.705 7.306 8.212 7.306 6.022zm51-109.027c-29.861-4.197-56.75-17.6-78.063-38.913-19.996-19.996-31.486-41.44-37.608-70.189-2.483-11.658-2.483-38.091 0-49.75 6.123-28.755 17.631-50.249 37.59-70.207C164.724 3.517 215.918-8.958 264.91 6.518c40.287 12.727 74.263 46.728 87.008 87.074 4.9 15.512 6.097 23.626 6.084 41.256-.012 17.562-1.233 25.796-6.134 41.38-12.391 39.4-46.03 73.493-85.31 86.46-17.608 5.814-43.47 8.459-60 6.136zm41.636-31.866c38.172-9.502 67.91-39.415 77.656-78.11 3.064-12.165 3.064-35.836 0-48-8.176-32.467-30.735-59.364-60.579-72.23-15.012-6.472-23.81-8.202-41.712-8.202-12.703 0-17.102.402-24.375 2.226-37.817 9.49-67.216 38.435-77.398 76.206-2.227 8.262-2.568 11.584-2.618 25.5-.066 18.437 1.586 26.987 8.136 42.117 12.911 29.826 40.59 53.125 71.755 60.4 11.8 2.756 12.797 2.845 27.5 2.466 9.183-.237 16.101-.996 21.635-2.373z" style="fill:#000"/></svg>