<svg xmlns="http://www.w3.org/2000/svg" width="200" height="370" viewBox="0 0 52.917 97.896">
    <path d="M11.781 97.682C4.655 96.636.553 91.48.151 83.059L0 79.898l1.557 1.425c.856.783 2.208 1.726 3.005 2.095 1.28.593 1.83.677 4.707.719l3.259.047.771 1.413c.823 1.506 2.495 3.389 3.01 3.389.171 0 .51-.305.754-.676.437-.666.426-.695-.651-1.864-1.69-1.834-2.19-3.204-2.042-5.605.089-1.454.316-2.395.831-3.449l.71-1.449-.567-.46c-.824-.673-1.137-.578-1.744.526-.744 1.354-1.188 2.822-1.373 4.543l-.156 1.451-1.318.16c-1.746.212-4.34-.161-5.76-.83-1.505-.707-3.43-2.656-4.252-4.306l-.658-1.319V64.693c0-6.058.07-11.014.156-11.014.085 0 .767.538 1.514 1.196 1.67 1.467 4.411 2.877 6.4 3.29.873.181 2.76.263 4.549.197 3.253-.12 5.067-.616 6.972-1.909.89-.604.983-.614 2.457-.271 3.874.9 6.702.737 9.578-.554 2.014-.903 3.864-2.88 4.882-5.218l.752-1.726 1.063.192c.585.105 2.072.18 3.303.165 2.65-.032 4.547-.664 6.451-2.147l1.255-.978.787.917c1.186 1.382 2.255 3.855 2.579 5.963.526 3.43-.496 6.852-2.774 9.288-1.1 1.176-1.19 1.367-.907 1.898.174.324.323 1.329.332 2.232.012 1.327-.143 1.963-.812 3.322-.455.925-1.234 2.15-1.73 2.725l-.902 1.043-.314-1.516c-.983-4.732-4.461-8.308-9.816-10.092-2.276-.757-2.68-.672-2.534.537.076.623.316.793 1.904 1.347 6.417 2.238 9.38 6.854 8.565 13.348-.46 3.68-1.929 6.424-4.882 9.13-1.84 1.687-4.217 3.009-6.004 3.339-.944.174-1.013.148-.816-.308.924-2.149 1.17-3.302 1.176-5.505.01-3.846-1.19-6.71-4.153-9.91l-1.701-1.837.562-1.9c.364-1.226.563-2.621.562-3.94v-2.042l-.725.004c-.398.002-.843.09-.988.197-.145.107-.288 1.163-.317 2.347-.096 3.838-2.086 6.946-5.479 8.557-.87.413-1.744.751-1.944.751-.271 0-.325.244-.21.955.086.525.2 1 .254 1.053.163.164 2.54-.717 3.726-1.38.611-.341 1.63-1.114 2.263-1.717l1.152-1.096 1.562 1.662c2.975 3.165 4.148 6.948 3.246 10.47-1.619 6.32-7.383 10.895-15.008 11.911-2.248.3-2.324.3-4.288.012zm-3.619-5.007c.178-.363.392-.884.475-1.158.084-.274.213-.439.286-.366.073.073.015.442-.128.819-.429 1.128.196 1.134 1.332.012.568-.561 1.212-1.43 1.432-1.932.22-.501.632-1.128.916-1.393.528-.491.692-1.377.302-1.618-.12-.074-.601.1-1.07.386-.852.517-.857.517-1.524-.007-1.526-1.201-3.41-.934-4.832.687-1.181 1.346-1.09 3.412.22 4.911.623.714 2.173.51 2.591-.342zm1.15-.66c-.004-.37 1.503-2.955 1.849-3.168.613-.38.56.175-.107 1.122-1.162 1.648-1.738 2.325-1.741 2.047zm-3.842-.68c-.097-.158-.055-.409.093-.558.333-.332.843-.051.843.464 0 .444-.678.511-.936.093zm.146-2.086c0-.293.176-.527.395-.527.22 0 .395.234.395.527 0 .293-.175.527-.395.527-.22 0-.395-.234-.395-.527zm3.471-.672c.12-.573.587-.608.694-.052.056.288-.074.46-.345.46-.253 0-.398-.17-.349-.408zm-1.858-.211c-.32-.386-.139-.698.407-.698.392 0 .48.68.118.904-.129.08-.365-.013-.525-.206zm3.656-15.939c0-.801-.478-1.33-1.654-1.832-.862-.368-1.1-.857-.868-1.784.224-.893 1.294-.81 1.424.112l.088.621.703-.661c.386-.364.932-.703 1.212-.753.364-.066.608-.47.851-1.41.188-.724.344-1.508.347-1.743.005-.443-.23-.487-4.954-.918l-1.928-.176.172.921c.137.726.079.958-.272 1.092-.376.145-.43.483-.352 2.19l.094 2.018-1.186.695c-.959.563-1.201.856-1.268 1.537l-.082.84h7.673zm-.79-4.37c0-.217-.31-.414-.725-.462-.641-.074-.717-.182-.657-.94.036-.471-.023-.84-.132-.821-.11.02-.59-.056-1.069-.167-.655-.153-.85-.327-.79-.705.044-.276.17-.508.279-.515.958-.068 5.242.415 5.359.603.082.133.068.719-.03 1.302-.13.772-.345 1.124-.787 1.292-.334.127-.685.356-.78.51-.25.405-.668.344-.668-.098zm-.264-1.995c0-.144-.052-.263-.116-.263s-.19.119-.279.263c-.09.145-.037.264.116.264.154 0 .28-.119.28-.263zm1.054 0a.264.264 0 0 0-.263-.263.264.264 0 0 0-.264.263.264.264 0 0 0 .527 0zm9.178 6.354c.049-.346-.137-.938-.412-1.317-.681-.936-.445-1.9.39-1.587.325.122.592.404.592.626 0 .607.16.517 1.586-.894 1.767-1.749 1.767-3.187 0-4.101-1.163-.601-2.221-.494-3.192.322-.53.447-1.094.69-1.484.638-1.428-.187-2.714 1.828-2.345 3.674.091.457.004.835-.24 1.038-.217.18-.385.768-.385 1.35v1.03l2.7-.075c2.622-.073 2.704-.094 2.79-.704zm-3.747-3.314c-.552-.843-.538-1.195.049-1.195.26 0 .618-.144.793-.32.25-.249.442-.196.885.247.54.54.545.596.123 1.242-.56.853-1.301.863-1.85.026zm4.58.448c0-.147-.302-.344-.671-.437-.477-.12-.821-.517-1.186-1.368-.626-1.46-.631-1.29.063-1.936.861-.802 2.672-.737 3.536.127.942.942.756 1.827-.622 2.962-.616.507-1.12.8-1.12.652zm-.087-2.61c-.097-.096-.176-.017-.176.176 0 .194.079.273.176.176a.25.25 0 0 0 0-.351zm1.053 0c-.096-.096-.175-.017-.175.176 0 .194.079.273.175.176a.25.25 0 0 0 0-.351zm24.434-6.1c1.345-.921 2.112-2.424 2.112-4.135 0-4.14-4.832-6.324-8.032-3.631-1.136.956-1.565 1.95-1.565 3.632 0 4.157 4.125 6.435 7.485 4.134zm-3.28-1.245c-.424-.512-.126-1.174.53-1.174.388 0 .534.173.534.63 0 .753-.625 1.072-1.064.544zm-.06-1.858c-.24-.242.078-.88.802-1.604.617-.618.629-.68.201-1.093-.423-.41-.479-.4-.856.154-.49.72-1.394.795-1.394.116 0-.942.677-1.488 1.847-1.488.843 0 1.227.147 1.606.616.703.868.633 1.213-.489 2.405-.95 1.01-1.378 1.232-1.716.894zM8.812 56.28c-2.165-.36-4.782-1.877-6.887-3.995l-1.84-1.852V21.044l1.486-.185c1.955-.245 5.21-.003 6.63.491 3.587 1.25 6.156 5.126 6.556 9.894l.147 1.759-1.347.609c-.74.335-1.909 1.118-2.596 1.74-1.08.978-1.203 1.189-.902 1.55.676.816 1.357.804 2.237-.037 1.532-1.466 2.975-2.026 5.196-2.019 1.725.006 2.239.127 3.8.895l1.803.889.49-.606c.27-.333.453-.736.407-.895-.158-.545-3.508-2.02-5.237-2.307l-1.728-.287-.315-2.055c-.173-1.131-.566-2.801-.874-3.712l-.559-1.655.76-.538c2.908-2.059 5.564-5.396 6.295-7.912.585-2.013.533-5.746-.109-7.808-.284-.912-.451-1.723-.372-1.802.08-.079.994-.13 2.032-.114 3.04.046 6.013 1.52 8.411 4.171 1.85 2.046 3.108 6.132 3.167 10.292.024 1.675-.095 2.39-.58 3.485-1.074 2.427-3.775 4.376-7.097 5.121l-1.41.316.148.907c.08.499.183.943.227.988.234.233 2.957-.578 4.67-1.392 4.967-2.359 7.139-6.864 5.98-12.4-.192-.912-.268-1.707-.17-1.768.097-.06.918.24 1.824.67 2.167 1.024 4.197 3.12 5.406 5.582 1.17 2.384 1.57 4.48 1.346 7.065l-.172 1.987.91.433c1.977.943 3.069 3.379 3.069 6.85 0 3.344-1.318 5.532-4.289 7.12-.941.502-1.517.594-3.747.594-3.048 0-4.844-.527-6.434-1.888-1.196-1.025-2.269-3.338-2.514-5.424l-.179-1.515H30.573l.133 1.856c.17 2.388 1.554 5.323 3.154 6.693.602.515 1.191.936 1.31.936.365 0 .24.599-.426 2.028-.872 1.872-2.522 3.586-4.172 4.332-1.196.54-1.783.623-4.46.622-3.357 0-4.089-.246-3.306-1.113.996-1.102 2.97-6.352 2.545-6.768-.059-.058-.517-.146-1.018-.196-.89-.088-.916-.063-1.113 1.067-.296 1.702-1.601 4.307-2.818 5.627-2.518 2.733-6.788 3.861-11.59 3.063zm4.972-4.659c0-.938.15-1.728.387-2.042.47-.62.53-3.046.087-3.489-.544-.544-.949-.35-1.264.606-.375 1.137-.693 1.176-.926.114-.218-.993-.867-1.297-1.352-.633-.473.647-.455 2.528.03 3.17.23.303.39 1.109.395 1.982.005.81.088 1.55.184 1.647.097.097.69.176 1.317.176h1.142zm-4.479-.634c0-.466.185-1.33.41-1.92.305-.799.342-1.253.145-1.772-.232-.609-.41-.696-1.398-.686-.623.007-1.28.133-1.462.28-.392.318-.443 2.21-.066 2.442.145.09.264.69.264 1.333v1.17H8.25c1.01 0 1.053-.034 1.053-.847zm8.558-.404a24.41 24.41 0 0 0 .232-2.57l.036-1.317-1.227-.057c-1.53-.07-1.928.33-1.686 1.7.096.546.24 1.555.318 2.244.143 1.246.147 1.251 1.137 1.251.983 0 .997-.014 1.19-1.251zm-5.216-4.068c-.084-.21-.147-.148-.16.16-.01.277.051.433.139.345.088-.087.097-.315.02-.505zm-3.633-.84c.616-.741-.45-1.806-1.191-1.19-.38.315-.484 1.08-.186 1.377.298.298 1.061.194 1.377-.186zm3.628.187a.25.25 0 0 0-.35 0c-.097.097-.018.176.175.176.193 0 .272-.08.175-.176zm4.926-.22c.341-.89-.619-1.735-1.314-1.158-.381.316-.484 1.08-.187 1.378.328.327 1.348.178 1.5-.22zm-4.057-1.168c.405-.756.34-1.015-.368-1.48-.498-.326-.762-.354-1.185-.128-.612.328-.766 1.721-.216 1.943.731.295 1.511.147 1.77-.335zm-3.852-1.816c.264-.292 1.049-.667 1.744-.834 1.618-.388 3.099-.018 4.36 1.09.607.533.92.677.92.425 0-.529-.721-1.129-2.113-1.76-1.34-.608-2.07-.664-3.494-.268-.988.274-2.824 1.658-2.824 2.128 0 .333.802-.113 1.407-.781zm22.04-15.971c0-.064-.119-.19-.264-.28-.144-.089-.263-.036-.263.117 0 .154.119.28.263.28.145 0 .264-.053.264-.117zm-3.161-1.043c0-.347-.29-1.14-.643-1.763-.354-.623-.58-1.235-.501-1.361.078-.126-.037-.43-.255-.674-.218-.244-.524-.922-.68-1.506-.446-1.68-.852-2.09-1.765-1.785-1.014.338-1.057.784-.222 2.279.598 1.07.754 1.197 1.106.906.365-.302.37-.276.05.24-.312.5-.3.644.086 1.07.245.272.582.901.748 1.399.515 1.544 2.076 2.443 2.076 1.195zm-1.054-.949c0-.193.079-.272.175-.175a.25.25 0 0 1 0 .35c-.096.098-.175.018-.175-.175zm2.826 1.159c-.087-.088-.314-.097-.505-.021-.21.084-.147.146.16.159.277.011.433-.05.345-.139zm1.652-1.29c0-.218-.114-.396-.255-.396-.14 0-.187.178-.103.396.083.217.198.395.255.395.057 0 .103-.178.103-.395zm-.655-1.713.524-.659-.593.502c-.326.276-.593.622-.593.769 0 .146.031.217.069.156.038-.06.304-.406.593-.768zm-18.558-.94c-2.35-2.38-6.002-3.496-10.363-3.167l-2.354.178.11-5.611c.103-5.232.156-5.73.783-7.387C2.124 2.758 4.164.88 7.153.19c1.62-.374 4.047-.178 5.68.459 2.74 1.067 5.565 3.768 6.69 6.394 2.26 5.282 1.643 9.676-1.884 13.403-1.239 1.309-3.004 2.675-3.434 2.658-.16-.006-.815-.542-1.457-1.192zm-2.536-7.287c.613-.876.52-.995-.776-.995-1.278 0-1.478.293-.75 1.099.578.638 1.027.608 1.526-.104zM6.675 12.7c.543-.654.03-.805-.598-.176-.465.464-.495.578-.157.578.232 0 .572-.18.755-.402zm4.448-1.043c1.042-1.847 1.054-2.837.046-3.845-2.004-2.005-5.315.195-4.092 2.719 1.294 2.668 1.21 2.57 2.25 2.57.914 0 1.037-.098 1.796-1.444zM7.601 9.609c-.205-.478.45-1.777.898-1.777.13 0 .423-.072.652-.16.266-.102.417-.017.417.235 0 .217-.272.463-.605.547-.338.085-.728.475-.884.885-.238.627-.307.666-.478.27Zm5.128 2.966c-.278-.52-.79-.725-.79-.316 0 .277.572.843.852.843.121 0 .093-.237-.062-.527zM5.566 9.657c-.052-.156-.18-.275-.286-.264a7.97 7.97 0 0 1-.602.02c-.225 0-.337.119-.247.264.22.355 1.254.337 1.135-.02zm8.744.035c0-.136-.108-.314-.24-.396-.34-.21-1.103.125-.928.408.193.314 1.168.304 1.168-.012zM6.67 6.515c-.155-.29-.474-.527-.709-.527-.377 0-.37.062.05.527.262.29.581.527.709.527s.105-.237-.05-.527zm6.065.125c.183-.22.26-.475.17-.564-.191-.192-.966.398-.966.735 0 .363.43.27.796-.17zM9.568 5.276c0-.53-.076-.635-.299-.413-.164.165-.227.485-.14.712.242.628.439.494.439-.299Z" style="stroke-width:1"/>
</svg>