<svg xmlns="http://www.w3.org/2000/svg" width="512" height="512"><path d="M236.83 367.416a5571 5571 0 0 0-13-1.477c-62.484-7.035-111.195-36.117-124.684-74.439l-2.816-8-.5-55.843-.5-55.843-44.407-19.24C3.42 131.99 1.67 130.986.273 123.543c-.366-1.95-.363-5.155.006-7.125 1.513-8.064-2.179-6.262 129.712-63.337C208.346 19.174 253.821 0 255.89 0c2.067 0 47.52 19.164 125.839 53.059 131.973 57.114 128.128 55.235 129.653 63.36.37 1.97.356 5.264-.03 7.322-1.22 6.506-6.093 9.852-27.857 19.127l-19.635 8.369-.264 95.308c-.263 94.495-.283 95.333-2.327 98.07-3.898 5.221-7.122 6.885-13.34 6.885-4.707 0-6.396-.49-9.285-2.694-7.217-5.504-6.813.221-6.813-96.635v-87.026l-7.75 3.37-7.75 3.369-.5 55.808-.5 55.808-2.816 8c-13.196 37.49-58.723 65.446-120.684 74.109-10.09 1.41-47.757 2.648-55 1.807zm41.576-32.479c48.889-4.757 89.597-24.268 101.635-48.711l3.289-6.68.287-46.802.288-46.802-3.288 1.402c-1.808.77-29.89 12.934-62.403 27.029C281.435 230.316 257.882 240 255.88 240c-2.002 0-25.576-9.692-62.384-25.646-32.541-14.105-60.641-26.267-62.445-27.025l-3.278-1.38.278 46.798.279 46.799 3.29 6.68c9.898 20.101 40.06 37.527 78.21 45.184 21.972 4.41 46.529 5.672 68.576 3.527zm40.657-155.687c42.74-18.512 61.223-26.97 60.014-27.466-.961-.394-29.422-4.123-63.247-8.288-33.825-4.164-62.783-7.825-64.352-8.136-4.058-.802-10.391-7.476-11.204-11.804-1.123-5.99.349-10.668 4.64-14.75 2.189-2.083 5.378-3.99 7.264-4.343 2.02-.38 40.105 3.965 95.455 10.888l92.093 11.52 7.536-3.186c4.144-1.752 7.537-3.41 7.54-3.685.012-1.074-197.912-86.142-199.7-85.831-2.51.437-198.24 85.184-198.232 85.831.008.734 197.195 85.952 198.946 85.978.818.012 29.279-12.016 63.247-26.728z" style="fill:#000"/></svg>