<svg xmlns="http://www.w3.org/2000/svg" width="448" height="304"><path d="M8.68 302.221c-1.827-.9-4.527-3.217-6-5.15C.49 294.203 0 292.505 0 287.805c0-6.217 1.664-9.44 6.884-13.34 2.706-2.02 3.95-2.067 61.662-2.334l58.901-.274.277-50.904c.27-49.631.328-50.973 2.338-53.665 1.134-1.518 3.304-3.688 4.822-4.822 2.706-2.02 3.95-2.068 61.665-2.335l58.905-.274.273-58.904c.267-57.715.315-58.96 2.335-61.665 1.134-1.518 3.304-3.688 4.823-4.822 2.71-2.025 3.901-2.067 66.254-2.334l63.493-.272-4.042-4.592c-6.732-7.647-6.764-15.69-.09-22.364C392.785.617 397.208-.742 403.25.37c3.182.586 6.731 3.672 23.421 20.361 21.202 21.202 21.943 22.327 20.362 30.922-.586 3.181-3.672 6.731-20.362 23.421-16.69 16.69-20.24 19.776-23.421 20.361-6.042 1.112-10.465-.247-14.75-4.532-6.682-6.682-6.643-14.716.109-22.387l4.061-4.613H287.546l-.273 58.828L287 181.56l-2.694 3.53c-5.372 7.043-3.097 6.813-67.18 6.813h-57.573l-.276 50.828-.277 50.83-2.694 3.53c-5.43 7.117-1.995 6.814-76.957 6.789-60.309-.02-67.696-.194-70.67-1.659z" style="fill:#000"/></svg>