<svg xmlns="http://www.w3.org/2000/svg" width="50" height="50">
    <path d="M2.416 45.656 0 41.343l2.432-4.21 2.432-4.214h10.04l2.44 4.219 2.44 4.218-2.438 4.313-2.436 4.315-5.039-.008-5.038-.007zm13.327 1.164a640.206 644.378 0 0 0 2.24-3.926l.833-1.48-2.134-3.864-2.132-3.865-4.654.092-4.653.093-1.91 3.26c-1.052 1.793-2.003 3.536-2.114 3.874-.121.371.673 2.121 2.016 4.437l2.215 3.824h8.887Zm14.463 2.79c0-.629 9.498-17.022 9.801-16.919.428.143 9.902 16.716 9.735 17.027-.236.441-19.536.334-19.536-.109zm18.354-.574c0-.366-8.427-14.986-8.632-14.975-.17.01-8.306 14.107-8.583 14.872-.071.195 3.462.332 8.547.332 4.768 0 8.668-.102 8.668-.229zm-26.707-2.982c-1.626-.25-2.383-.595-2.047-.932.086-.087 1.368 0 2.848.195 2.01.263 3.406.227 5.5-.14 2.916-.512 4.17-.206 1.792.438-1.919.52-6.09.745-8.093.439zM43.325 34.19c1.668-4.091 1.79-4.702 1.803-9.014.007-2.39-.068-4.689-.167-5.107-.099-.417-.03-.825.153-.905.585-.256.965 1.919.987 5.65.018 3.067-.137 4.09-1.01 6.68-.566 1.682-1.259 3.13-1.537 3.22-.373.118-.434-.021-.229-.523zM3.97 28.497c-.218-1.26-.396-2.918-.396-3.682 0-2.05.743-5.977 1.128-5.977.202 0 .223.765.054 1.902-.36 2.427-.36 5.723 0 8.15.407 2.749-.303 2.393-.786-.392zM5.96 17.242C-.328 14.886-1.914 6.596 3.076 2.186 4.933.543 6.412 0 9.026 0c4.09 0 7.288 2.43 8.441 6.415 1.584 5.462-2.18 10.832-7.846 11.2-1.436.093-2.782-.045-3.664-.374Zm6.552-1.158c7.671-3.85 5.02-15.36-3.54-15.36-6.792 0-10.496 7.715-6.338 13.2 1.242 1.641 4.228 3.101 6.339 3.101 1.064 0 2.33-.337 3.538-.943zm20.214-7.571V0H50v17.025H32.725zm16.472-.09.097-7.699h-15.85v15.59l7.828-.097 7.828-.097zM28.586 4.468c-2.084-.489-5.69-.45-8.368.094-.718.145-1.17.092-1.17-.138 0-.601 4.953-1.277 7.542-1.03 2.826.27 5.055.857 5.055 1.331 0 .419-.294.394-3.059-.257z" style="fill:#c2dfff;stroke-width:1"/>
</svg>