<svg xmlns="http://www.w3.org/2000/svg" width="44.8" height="37.12">
<path d="M9.247 36.029c0-.333.23-1.718.511-3.078l.512-2.473-1.197-1.162c-1.574-1.529-1.97-2.172-2.332-3.79-.477-2.136.076-3.97 1.76-5.844.795-.884 1.668-1.607 1.94-1.607.312 0-.054.586-.995 1.59-1.688 1.805-2.119 2.72-2.119 4.49 0 1.809.496 2.856 2.156 4.549l1.479 1.51-.378 2.047c-.207 1.126-.377 2.198-.377 2.382 0 .185.775-.47 1.722-1.456l1.721-1.791 1.753.392c5.745 1.286 12.297-.28 15.25-3.644.559-.636 1.182-1.1 1.386-1.032.587.196-2.124 2.92-3.82 3.837-2.53 1.37-5.06 1.956-8.412 1.95-1.672-.004-3.688-.188-4.48-.41l-1.44-.403-2.08 2.278c-1.144 1.253-2.188 2.277-2.32 2.275-.132-.003-.24-.277-.24-.61zm29.743-8.107-2.098-2.28-1.876.376c-5.392 1.083-11.333-.204-14.736-3.192-1.248-1.096-2.393-3.057-2.393-4.099 0-.959.531-.795.737.228.45 2.238 2.998 4.513 6.547 5.846 2.508.942 6.92 1.182 9.676.527l2.08-.495 1.863 1.82 1.863 1.822-.217-1.28c-.119-.704-.33-1.82-.469-2.48-.237-1.13-.181-1.256.969-2.167 2.704-2.142 3.315-5.826 1.367-8.246-2.632-3.27-6.198-4.704-11.696-4.705-3.613 0-4.462-.29-1.955-.666 3.777-.566 9.093.634 11.987 2.707 4.2 3.008 4.662 8.208.996 11.23l-1.155.951.543 2.836c.611 3.186.645 3.587.304 3.563-.132-.008-1.184-1.042-2.337-2.296zM2.658 20.235c.117-.572.377-1.994.578-3.16l.367-2.118-1.156-1.015C-2.1 9.95-.07 3.61 6.549 1.134c8.255-3.089 18.764.46 19.816 6.69.635 3.759-2.991 7.73-8.33 9.12-2.214.577-7.249.646-9.308.127l-1.444-.363L5.2 18.99c-1.146 1.256-2.234 2.284-2.418 2.284-.207 0-.254-.396-.123-1.04zm6.029-3.895c3.554.946 8.973.422 12.17-1.178 1.61-.805 3.613-2.645 4.294-3.945.653-1.244.653-3.62 0-4.868C23.298 2.802 18.899.76 13.088.75 8.07.741 3.867 2.494 1.794 5.462-.041 8.087.34 10.833 2.884 13.31l1.542 1.503-.464 2.19c-.255 1.206-.466 2.336-.468 2.512-.002.176.787-.567 1.754-1.651l1.759-1.971zm-2-5.945c-.352-.352-.64-.928-.64-1.28 0-.824 1.096-1.92 1.92-1.92.824 0 1.92 1.096 1.92 1.92 0 .352-.288.928-.64 1.28-.352.352-.928.64-1.28.64s-.928-.288-1.28-.64zm2.057-.503c.277-.277.503-.626.503-.777 0-.356-.924-1.28-1.28-1.28-.312 0-1.28.906-1.28 1.197 0 .293 1.026 1.363 1.307 1.363.136 0 .474-.227.75-.503zm3.454.645c-.878-.615-.943-2.073-.126-2.813.73-.66 1.313-.669 2.224-.031.888.622.92 1.853.071 2.702-.77.77-1.229.8-2.169.142zm1.55-.474c.75-.4.805-1.356.112-1.93-.997-.828-2.247.776-1.4 1.797.46.554.495.558 1.288.133zm3.57.474c-1.02-.715-.955-2.207.126-2.916.75-.49.925-.499 1.68-.077 1.16.648 1.328 2.267.31 2.98-.909.636-1.222.638-2.116.013zm1.785-.526c.534-.535.48-1.379-.123-1.879-.997-.827-2.247.777-1.4 1.798.469.565 1.01.594 1.523.08zm5.824 9.892c-1.58-.796-.946-3.428.827-3.428 1.67 0 2.397 2.378 1.022 3.342-.85.595-.838.594-1.849.086zm1.821-1.072c.265-.69-.304-1.556-1.021-1.556-.314 0-.717.232-.896.516-.489.775-.037 1.564.896 1.564.464 0 .907-.228 1.021-.524zm3.389 1.157c-1.596-.642-1.01-3.513.717-3.513.886 0 2.073 1.016 2.073 1.774 0 .522-1.39 2.08-1.825 2.045-.14-.01-.575-.148-.965-.306zm1.818-1.251c.359-.67-.282-1.622-1.092-1.622-.667 0-1.207.871-.98 1.584.27.85 1.624.875 2.072.038zm3.057.812c-.443-.443-.805-1.028-.805-1.3 0-.7 1.161-1.774 1.92-1.774.798 0 1.92 1.086 1.92 1.859 0 .78-.645 1.55-1.515 1.808-.52.155-.932-.005-1.52-.593zm2.058-.654c.46-.555-.07-1.78-.771-1.78-.468 0-1.452.84-1.452 1.239 0 .906 1.597 1.295 2.223.541z" style="fill:#C2DFFF;stroke-width:1"/>
</svg>