<svg xmlns="http://www.w3.org/2000/svg" width="40.96" height="44.8">
<path d="M14.053 35.564v-8.79l2.93-6.9c1.613-3.795 3.062-6.856 3.222-6.803.16.053 1.576 3.118 3.147 6.81l2.858 6.713.001 8.88.002 8.88h-12.16zm11.52 6.87v-1.28h-10.88v2.56h10.88zm-7.84-9.092c0-6.646-.032-7.011-.643-7.417-.52-.345-.797-.35-1.44-.03l-.797.397-.087 6.702c-.048 3.687-.012 6.897.079 7.135.113.296.595.396 1.527.318l1.36-.114zm3.76 6.886c.132-.019.24-3.122.24-6.896 0-6.624-.024-6.879-.677-7.336-.372-.26-.912-.393-1.2-.294-1.227.424-1.323.992-1.323 7.78 0 3.632.06 6.665.133 6.738.113.113 2.058.118 2.827.008zm4.08-6.934c0-6.585-.024-6.84-.677-7.298-.372-.26-.912-.393-1.2-.294-1.227.424-1.323.99-1.323 7.812v6.639l1.04.103c2.277.225 2.16.604 2.16-6.962zm-6.45-8.004c.902-.45 1.112-.452 1.97-.024.85.424 1.068.424 1.915.002.526-.263 1.102-.387 1.28-.277.544.336.369-.394-.615-2.565l-.94-2.072H17.564l-.764 1.728c-1.119 2.53-1.268 3.097-.768 2.913.312-.115 1.69.4 2.051.767.017.017.485-.195 1.04-.472zm3.25-5.744c0-.429-2.035-4.952-2.228-4.952-.178 0-1.014 1.826-2.162 4.72-.118.297.425.4 2.115.4 1.251 0 2.275-.076 2.275-.168zM7.19 35.322c-.274-.39-.5-1.003-.5-1.36-.001-.357-.147-1.17-.324-1.808-.28-1.01-.569-1.267-2.217-1.982-2.448-1.062-2.766-1.646-2.116-3.882.695-2.39.66-2.576-.781-4.14-1.67-1.811-1.67-2.695 0-4.592 1.45-1.648 1.467-1.74.773-4.13-.454-1.56-.457-1.822-.024-2.483.267-.406 1.284-1.063 2.262-1.46 1.547-.628 1.82-.872 2.101-1.886.178-.641.325-1.474.326-1.85 0-.377.272-1.018.602-1.426.537-.664.833-.732 2.856-.663l2.256.078 1.003-1.457c.551-.802 1.355-1.689 1.787-1.972.747-.489.887-.462 2.861.55l2.077 1.066 2.03-1.042c2.436-1.25 3.112-1.087 4.48 1.075 1.03 1.629 1.407 1.796 3.823 1.695 2.298-.097 2.972.465 3.276 2.726.274 2.037.51 2.338 2.538 3.237 2.346 1.039 2.629 1.484 2.112 3.322-.805 2.866-.81 2.826.585 4.411 1.856 2.109 1.853 2.775-.018 4.902-1.37 1.555-1.386 1.684-.57 4.558.526 1.858.246 2.28-2.256 3.387-2.07.917-2.133.998-2.414 3.102-.324 2.432-.739 2.736-3.735 2.736-1.605 0-2.457-.117-2.331-.32.108-.176 1.18-.32 2.38-.32 1.361 0 2.301-.15 2.5-.4.175-.22.42-1.103.545-1.961.337-2.324.42-2.433 2.628-3.423 1.121-.503 2.112-1.106 2.201-1.34.09-.234-.057-1.049-.325-1.811-.77-2.181-.634-2.971.79-4.59.705-.8 1.28-1.697 1.28-1.995 0-.298-.575-1.197-1.28-1.996-1.436-1.633-1.554-2.364-.759-4.698.495-1.453.491-1.555-.08-2.087-.33-.307-1.286-.81-2.124-1.117-1.74-.637-2.003-1.002-2.325-3.222-.128-.88-.376-1.78-.551-2-.2-.252-1.15-.4-2.556-.4-2.442 0-2.054.237-4.661-2.853L24.394.408l-1.77 1.013c-.973.557-2.078 1.013-2.455 1.013-.377 0-1.474-.445-2.438-.989l-1.75-.988-.885.952c-.486.524-1.263 1.401-1.727 1.949-.797.94-.967.996-3.108.996-2.382 0-2.926.337-2.93 1.818-.001.32-.155 1.132-.342 1.805-.302 1.089-.56 1.322-2.361 2.13-1.112.499-2.09 1.1-2.173 1.337-.082.236.044 1.078.28 1.87.702 2.349.57 3.07-.842 4.602-.704.764-1.28 1.645-1.28 1.958 0 .312.576 1.193 1.28 1.957 1.412 1.532 1.544 2.254.842 4.603-.236.792-.362 1.633-.28 1.87.083.236 1.06.837 2.173 1.336 1.8.808 2.059 1.041 2.361 2.13.187.673.34 1.485.342 1.805.004 1.5.539 1.819 3.053 1.819 1.379 0 2.389.135 2.389.32 0 .186-1.061.32-2.542.32-2.264 0-2.597-.078-3.04-.712zM11.89 10.61c-.925-1.13-1.556-2.134-1.402-2.229.314-.194 3.565 3.406 3.565 3.947 0 .701-.52.288-2.163-1.718zm14.551 1.855c-.251-.407 2.946-4.325 3.334-4.085.268.165-.049.628-2.375 3.467-.42.513-.852.791-.959.618zM15.59 8.36c-.5-1.391-.733-2.47-.556-2.58.167-.103.37.001.449.232.08.231.439 1.213.798 2.18.693 1.87.804 2.56.41 2.56-.132 0-.628-1.076-1.101-2.392zm7.744 2.09c0-.701 1.7-4.817 1.99-4.817.175 0 .252.18.17.4-.08.22-.468 1.372-.86 2.56-.392 1.188-.845 2.16-1.007 2.16a.299.299 0 0 1-.293-.302zm-3.52-2.897c0-1.494.133-2.56.32-2.56.186 0 .32 1.066.32 2.56 0 1.493-.134 2.56-.32 2.56-.187 0-.32-1.067-.32-2.56z" style="fill:#000;stroke-width:1"/>
</svg>