<svg xmlns="http://www.w3.org/2000/svg" width="50" height="50">
    <path d="M18.015 40.091v-9.909l3.34-7.778c1.838-4.278 3.489-7.729 3.671-7.67.182.06 1.796 3.516 3.586 7.678l3.257 7.567.002 10.01.002 10.01H18.015Zm13.128 7.744v-1.442H18.745v2.885h12.398ZM22.21 37.586c0-7.492-.036-7.903-.733-8.361-.592-.389-.908-.395-1.64-.034l-.909.448-.1 7.555c-.054 4.156-.013 7.775.09 8.043.13.334.679.446 1.741.359l1.55-.129zm4.285 7.763c.15-.022.273-3.52.273-7.774 0-7.467-.027-7.755-.771-8.27-.424-.293-1.04-.443-1.368-.331-1.398.478-1.507 1.118-1.507 8.77 0 4.094.068 7.513.151 7.596.13.127 2.346.133 3.222.009zm4.65-7.817c0-7.423-.028-7.71-.772-8.227-.424-.293-1.04-.443-1.368-.331-1.398.478-1.507 1.116-1.507 8.806v7.484l1.185.116c2.595.254 2.461.681 2.461-7.848zm-7.35-9.023c1.027-.507 1.266-.51 2.244-.027.969.478 1.217.478 2.182.002.6-.296 1.256-.436 1.46-.312.619.379.42-.444-.702-2.891l-1.071-2.336h-5.89l-.871 1.948c-1.275 2.852-1.445 3.491-.875 3.284.355-.13 1.926.45 2.337.864.02.02.553-.22 1.185-.532zm3.703-6.475c0-.484-2.32-5.582-2.54-5.582-.202 0-1.155 2.058-2.463 5.32-.135.335.484.451 2.41.451 1.426 0 2.593-.085 2.593-.189zM10.194 39.818c-.312-.44-.57-1.13-.57-1.533 0-.402-.167-1.319-.369-2.038-.319-1.139-.648-1.428-2.526-2.234-2.79-1.198-3.152-1.856-2.412-4.376.792-2.695.753-2.904-.89-4.667-1.903-2.042-1.903-3.039 0-5.177 1.653-1.858 1.672-1.961.881-4.656-.517-1.758-.52-2.054-.027-2.799.304-.457 1.463-1.198 2.578-1.646 1.763-.708 2.074-.983 2.394-2.126.203-.722.37-1.661.371-2.085 0-.425.31-1.148.687-1.608.611-.748.949-.825 3.254-.747l2.571.088L17.28 2.57c.628-.904 1.544-1.904 2.037-2.223.85-.55 1.01-.52 3.26.62l2.367 1.202L27.256.995c2.776-1.409 3.547-1.225 5.106 1.212 1.174 1.837 1.603 2.025 4.356 1.911 2.62-.11 3.387.524 3.734 3.073.312 2.296.58 2.636 2.892 3.649 2.674 1.171 2.996 1.673 2.407 3.745-.918 3.23-.923 3.186.667 4.972 2.115 2.378 2.111 3.129-.021 5.526-1.561 1.753-1.58 1.899-.65 5.139.6 2.094.28 2.57-2.57 3.818-2.36 1.033-2.431 1.125-2.751 3.497-.37 2.741-.843 3.084-4.257 3.084-1.829 0-2.8-.132-2.656-.36.123-.2 1.344-.362 2.712-.362 1.55 0 2.622-.169 2.849-.45.2-.249.479-1.244.621-2.211.384-2.62.479-2.743 2.995-3.859 1.277-.567 2.407-1.247 2.508-1.51.103-.264-.065-1.183-.37-2.042-.878-2.459-.723-3.35.9-5.174.803-.902 1.459-1.913 1.459-2.25 0-.335-.656-1.349-1.459-2.25-1.636-1.84-1.77-2.664-.865-5.295.564-1.638.56-1.753-.091-2.353-.376-.346-1.466-.913-2.42-1.26-1.983-.717-2.283-1.129-2.65-3.631-.146-.992-.429-2.007-.628-2.255-.228-.284-1.31-.45-2.913-.45-2.783 0-2.34.266-5.312-3.217L29.8.46l-2.016 1.142c-1.109.628-2.368 1.142-2.798 1.142-.43 0-1.68-.502-2.778-1.115L20.212.515l-1.008 1.073c-.554.591-1.44 1.58-1.968 2.197-.908 1.06-1.102 1.123-3.542 1.123-2.715 0-3.334.38-3.339 2.05-.001.36-.177 1.276-.39 2.034-.344 1.228-.638 1.49-2.69 2.402-1.268.562-2.382 1.24-2.477 1.507-.093.266.05 1.215.32 2.108.8 2.648.649 3.46-.96 5.188-.802.86-1.459 1.854-1.459 2.207 0 .352.657 1.345 1.459 2.206 1.609 1.727 1.76 2.54.96 5.189-.27.893-.413 1.84-.32 2.108.095.266 1.208.943 2.477 1.506 2.05.91 2.346 1.173 2.69 2.401.213.759.388 1.674.39 2.035.005 1.69.614 2.05 3.48 2.05 1.57 0 2.722.153 2.722.361 0 .21-1.21.36-2.897.36-2.58 0-2.96-.087-3.465-.802zm5.356-27.857c-1.054-1.274-1.773-2.406-1.597-2.513.357-.219 4.062 3.84 4.062 4.45 0 .79-.592.324-2.465-1.937zm16.583 2.09c-.286-.458 3.357-4.875 3.8-4.604.304.186-.057.708-2.707 3.908-.48.578-.971.892-1.093.697zM19.767 9.425c-.57-1.568-.835-2.784-.634-2.908.19-.116.422 0 .512.261.091.26.5 1.368.91 2.458.79 2.108.916 2.886.467 2.886-.15 0-.716-1.213-1.255-2.697zm8.825 2.356c0-.79 1.937-5.43 2.268-5.43.2 0 .287.203.193.451-.09.248-.533 1.547-.98 2.886-.446 1.34-.963 2.435-1.147 2.435a.34.337 0 0 1-.334-.34ZM24.58 8.514c0-1.684.151-2.885.364-2.885.212 0 .365 1.201.365 2.885 0 1.683-.153 2.886-.365 2.886-.213 0-.364-1.203-.364-2.886z" style="fill:#c2dfff;stroke-width:1"/>
</svg>