<svg xmlns="http://www.w3.org/2000/svg" width="50" height="50">
    <path d="M21.947 42.604c-.4-.226-.849-.586-.996-.8-.147-.216-.27-4.71-.273-9.987l-.005-9.594-2.574-3.108c-2.852-3.442-3.09-4.003-3.454-8.15C14.357 7.704 14.658 7 16.34 7c1.43 0 2.027 1.079 2.33 4.214.207 2.13.453 2.852 1.386 4.053l1.136 1.462h8.154l1.099-1.478c.867-1.167 1.144-1.985 1.316-3.874.3-3.286.811-4.197 2.356-4.197 1.855 0 2.063.627 1.593 4.822l-.405 3.604-2.765 3.337-2.766 3.335v9.631c0 8.272-.08 9.711-.571 10.198-.883.874-2.243 1.073-3.179.466-.713-.462-.93-.468-1.523-.04-.828.6-1.573.62-2.554.07zm2.207-.802c.648-.47.712-1.044.785-7.027.044-3.583.208-6.556.364-6.605.157-.05.327 2.91.38 6.576.083 5.75.18 6.728.707 7.117.814.6 1.393.567 2.083-.116.492-.487.573-1.923.573-10.196v-9.63l2.753-3.349 2.754-3.348.395-3.174c.44-3.535.292-4.33-.802-4.33-.953 0-1.359.99-1.645 4.016-.266 2.785-1.744 5.207-3.396 5.563a28.67 28.67 0 0 0-1.334.316c-.2.059-.76 1.266-1.243 2.683-.483 1.416-1.047 2.52-1.251 2.453-.205-.067-.765-1.288-1.244-2.712-.797-2.369-.958-2.59-1.865-2.59-1.054 0-1.513-.298-2.95-1.917-.717-.805-.98-1.655-1.274-4.107-.39-3.225-.9-4.064-2.178-3.578-.563.214-.608.563-.38 2.97.377 3.979.607 4.507 3.44 7.91L21.4 21.82v9.587c0 8.415.074 9.667.603 10.246.724.792 1.211.826 2.15.148zm1.622-21.665c.193-.505.453-1.316.576-1.802.208-.82.126-.885-1.12-.885-.933 0-1.285.137-1.154.45.103.248.389 1.059.633 1.802.245.743.505 1.351.58 1.351.072 0 .29-.412.485-.916zM4.29 39.79c-.666-.66-.728-1.203-.728-6.396l-.002-5.676-.736 1.194c-.587.955-.934 1.171-1.727 1.081-1.654-.188-1.461-1.715.741-5.878l1.906-3.603h7.28l1.903 3.783c2.204 4.385 2.32 5.53.578 5.697-.956.091-1.259-.068-1.715-.901-.517-.945-.555-.645-.569 4.483-.013 5.004-.08 5.56-.742 6.216-.822.813-1.527.9-2.611.326-.538-.285-.853-.285-1.141 0-.612.606-1.633.47-2.437-.326zm2.111-.433c.293-.29.437-1.897.437-4.864 0-2.714.141-4.432.364-4.432s.364 1.673.364 4.298c0 3.427.116 4.414.572 4.864.661.653.865.682 1.612.214.444-.277.58-1.644.729-7.291l.182-6.95 1.077 2.072c.704 1.355 1.302 2.072 1.73 2.072.357 0 .65-.169.65-.377 0-.209-.807-2.072-1.793-4.144l-1.794-3.767H4.298L2.474 24.65C1.472 26.628.651 28.493.651 28.794c0 1.227 1.16.428 2.082-1.435.54-1.09 1.112-1.982 1.27-1.982.16 0 .288 3.073.288 6.829 0 6.123.066 6.866.637 7.195.827.477.953.473 1.474-.043zm33.281.593c-.779-.541-.807-.776-.81-6.396l.001-5.836-.72 1.171c-.838 1.358-2.297 1.6-2.903.477-.301-.556.018-1.525 1.604-4.865l1.98-4.17h7.326l2.087 4.149c2.253 4.482 2.302 5.281.334 5.514-.74.088-1.06-.101-1.388-.81-.233-.51-.562-.925-.73-.925-.169 0-.307 2.488-.307 5.529 0 5.117-.055 5.58-.746 6.199-.637.57-.91.607-1.869.247-.745-.278-1.342-.301-1.777-.07-.883.467-1.134.44-2.08-.214zm2.03-.593c.293-.29.438-1.897.438-4.864 0-2.714.14-4.432.364-4.432.223 0 .364 1.673.364 4.298 0 3.427.116 4.414.572 4.864.687.68.964.704 1.54.134.306-.304.436-2.373.436-7.005 0-3.932.145-6.662.36-6.792.196-.122.804.68 1.35 1.779.927 1.874 1.62 2.431 2.089 1.68.109-.176-.63-2.04-1.645-4.144l-1.846-3.823h-6.392l-1.693 3.61c-2.014 4.3-2.047 4.417-1.24 4.591.458.1.898-.406 1.623-1.87.546-1.104 1.124-2.007 1.282-2.007.159 0 .288 3.048.288 6.775 0 6.714.154 7.639 1.274 7.639.22 0 .597-.195.837-.433zM5.707 18.351c-1.974-1.062-2.195-3.845-.415-5.23 1.74-1.356 4.453-.652 5.223 1.354.512 1.333-.22 3.226-1.502 3.882-1.285.657-2.074.656-3.306-.006zm3.27-.934c1.168-1.078.964-3.163-.382-3.907-1.973-1.093-4.297.769-3.528 2.823.71 1.9 2.49 2.393 3.91 1.084zm31.327.421c-1.357-1.343-1.399-2.823-.121-4.324 1.983-2.333 5.61-.984 5.61 2.086 0 1.15-.217 1.607-1.12 2.359-1.518 1.263-3.013 1.222-4.369-.12zm3.801-.414c1.839-1.431.797-4.298-1.562-4.298-1.18 0-2.575 1.403-2.575 2.587 0 .89 1.584 2.457 2.483 2.457.382 0 1.126-.335 1.654-.746zM23.13 14.538c-.35-.202-.883-.838-1.183-1.412-1.89-3.618 1.628-7.094 5.286-5.222 1.356.695 1.813 1.558 1.813 3.423 0 2.14-1.512 3.604-3.703 3.59-.867-.006-1.863-.177-2.213-.38zm4.294-1.216c1.889-1.87.583-5.241-2.03-5.241-1.547 0-3.265 1.7-3.265 3.232 0 1.58 1.404 2.894 3.094 2.894.903 0 1.585-.274 2.201-.884z" style="fill:#c2dfff;stroke-width:.999999"/>
</svg>