<svg xmlns="http://www.w3.org/2000/svg" width="28.8" height="44.8">
<path d="M15.038 43.896c-.898-.52-1.744-1.624-1.753-2.287-.005-.407-.268-.56-.967-.56-1.41 0-2.35-1.067-2.104-2.386.138-.734.052-1.166-.29-1.449-1-.83-.216-3.205 1.06-3.205.254 0 .372-.794.367-2.48-.008-2.917-.628-4.55-2.63-6.926-1.363-1.619-2.483-3.541-2.483-4.262 0-.275.479-.412 1.44-.412 1.379 0 1.44-.04 1.44-.937 0-.938 1.218-2.263 2.08-2.263.863 0 2.08 1.325 2.08 2.263 0 .91.045.937 1.6.937h1.6v-2.667c0-1.466.087-2.753.192-2.858.106-.106.544-.032.974.164.658.3.89.248 1.465-.328.597-.597.635-.792.296-1.537-.353-.775-.504-.834-1.658-.65l-1.269.203V5.76l1.736.18c3.582.37 7.072 2.873 8.74 6.27.779 1.585.884 2.162.88 4.84-.006 3.469-.486 4.782-2.746 7.517-2.041 2.47-2.588 3.8-2.771 6.742l-.163 2.61.853.215c1.082.271 1.596 1.493 1.092 2.597-.2.44-.475.799-.612.799s-.166.507-.066 1.127c.227 1.395-.552 2.393-1.866 2.393-.688 0-.95.184-1.098.77-.327 1.305-1.562 2.19-3.248 2.325-.842.067-1.819-.044-2.17-.248zm4.025-1.222c.514-.515.935-1.091.935-1.28 0-.222-1.082-.345-3.04-.345-3.424 0-3.768.29-2.055 1.731 1.377 1.16 2.934 1.12 4.16-.106zm3.62-2.985c.256-.408.256-.712 0-1.12-.31-.491-1.018-.57-5.758-.648-4.8-.078-5.448-.027-5.805.461-.521.713-.507.916.109 1.532.434.433 1.306.497 5.805.422 4.637-.076 5.34-.157 5.648-.647zm.451-2.864c.549-.549.475-1.753-.122-1.982-.278-.107-3.13-.194-6.336-.194-5.965 0-6.598.123-6.598 1.28 0 1.16.629 1.28 6.72 1.28 4.203 0 6.065-.113 6.336-.384zm-6.656-6.66v-3.844l1.25.2c1.059.17 1.304.097 1.611-.476.544-1.017-.09-2.038-1.26-2.03-.089 0-.485.098-.88.219-.692.21-.72.141-.72-1.724V20.57h-2.027c-2.269 0-2.572-.14-2.064-.952.78-1.25-.741-2.575-1.969-1.715-.591.414-.682.694-.515 1.585l.203 1.082H8.653c-2.044 0-1.928.525.853 3.883 1.909 2.303 2.477 3.886 2.485 6.917l.007 2.64h4.48zm5.12 1.822c0-2.606.688-4.883 1.997-6.61 1.806-2.382 3.123-4.307 3.123-4.562 0-.135-.72-.246-1.6-.246-1.692 0-1.764-.05-1.318-.901.162-.309.163-.856.003-1.28-.226-.6-.477-.721-1.322-.64-1.003.097-1.042.153-1.015 1.46l.027 1.36h-4.412l.099 1.335c.09 1.221.175 1.336 1.016 1.372.997.042 2.122 1.152 2.122 2.094 0 1.01-1.099 2.027-2.19 2.027h-1.01V34.009h4.48zm-1.066-13.033c0-1.248.769-2.012 2.026-2.012 1.258 0 2.027.764 2.027 2.012 0 .915.074.975 1.212.975s1.225-.07 1.428-1.152c1.026-5.468-3.146-11.257-8.76-12.155l-1.347-.215v4.881h.96c1.108 0 2.24.98 2.24 1.935 0 .913-1.407 2.226-2.385 2.226-.795 0-.815.053-.815 2.24v2.24h1.707c1.689 0 1.707-.01 1.707-.975zM.228 14.249C.102 13.94 0 12.465 0 10.969c.002-2.322.132-2.985.89-4.531C2.63 2.887 5.916.493 9.497.168L11.358 0v5.422h.943c1.34 0 1.937.625 1.937 2.027 0 1.402-.596 2.027-1.937 2.027h-.943v5.333H9.012c-1.291 0-2.433-.086-2.539-.192-.106-.106-.032-.544.164-.974.3-.658.248-.89-.328-1.465-.597-.597-.792-.635-1.536-.296-.776.354-.835.504-.65 1.658l.203 1.269H2.392c-1.54 0-1.98-.114-2.164-.56zm3.07-1.276c.106-1.093 1.045-2.004 2.066-2.004.859 0 2.154 1.445 2.154 2.403 0 .793.072.827 1.52.734l1.52-.097.092-2.747.092-2.747 1.348.027c1.288.026 1.353-.019 1.447-.992.12-1.232-.815-1.94-1.838-1.392-.34.182-.7.33-.8.33-.1 0-.18-1.295-.18-2.88V.729L9.678.73c-2.742 0-6.92 3.18-8.31 6.324-.78 1.76-1.09 5-.601 6.256.298.768.503.886 1.39.8.914-.088 1.052-.226 1.14-1.136z" style="fill:#000;stroke-width:1"/>
</svg>