<svg xmlns="http://www.w3.org/2000/svg" width="50" height="50">
    <path d="M26.289 49.696c-1.033-.589-2.005-1.839-2.016-2.59-.005-.46-.308-.633-1.111-.633-1.621 0-2.702-1.208-2.42-2.701.16-.831.06-1.32-.333-1.64-1.15-.94-.248-3.63 1.219-3.63.292 0 .428-.898.422-2.807-.01-3.302-.722-5.151-3.024-7.841-1.567-1.833-2.854-4.01-2.854-4.825 0-.312.55-.467 1.655-.467 1.586 0 1.656-.045 1.656-1.06 0-1.063 1.4-2.563 2.391-2.563.992 0 2.391 1.5 2.391 2.562 0 1.03.052 1.061 1.84 1.061h1.84v-3.02c0-1.659.1-3.116.22-3.235.122-.12.625-.036 1.12.186.756.34 1.023.28 1.684-.371.686-.676.73-.897.34-1.74-.406-.878-.58-.945-1.906-.736l-1.459.23V6.52l1.996.204c4.118.419 8.13 3.252 10.048 7.098.896 1.795 1.016 2.448 1.012 5.48-.007 3.927-.559 5.414-3.157 8.51-2.347 2.796-2.975 4.302-3.186 7.633L34.47 38.4l.98.243c1.244.307 1.835 1.69 1.256 2.94-.23.498-.546.905-.704.905-.157 0-.19.574-.076 1.276.261 1.58-.634 2.709-2.145 2.709-.79 0-1.092.208-1.262.872-.376 1.477-1.796 2.48-3.734 2.632-.968.076-2.092-.05-2.495-.28zm4.627-1.383c.591-.584 1.075-1.236 1.075-1.45 0-.25-1.244-.39-3.495-.39-3.936 0-4.332.328-2.362 1.96 1.583 1.313 3.373 1.268 4.782-.12zm4.162-3.38c.294-.462.294-.806 0-1.268-.356-.556-1.17-.645-6.62-.733-5.518-.089-6.263-.031-6.674.521-.599.808-.583 1.037.126 1.735.499.49 1.501.563 6.673.478 5.331-.086 6.14-.178 6.494-.733zm.518-3.242c.632-.622.547-1.985-.14-2.244-.32-.121-3.598-.22-7.284-.22-6.858 0-7.586.14-7.586 1.45 0 1.313.724 1.448 7.726 1.448 4.832 0 6.973-.127 7.284-.434zm-7.652-7.54v-4.352l1.437.226c1.218.193 1.5.11 1.852-.539.626-1.151-.103-2.307-1.448-2.298-.102 0-.558.111-1.012.248-.795.238-.828.16-.828-1.952v-2.196h-2.33c-2.609 0-2.957-.159-2.373-1.078.897-1.415-.852-2.915-2.264-1.941-.68.468-.784.785-.592 1.794l.234 1.225h-1.672c-2.35 0-2.216.594.98 4.396 2.195 2.607 2.848 4.4 2.858 7.83l.008 2.99h5.15zm5.887 2.062c0-2.95.79-5.528 2.295-7.483 2.077-2.697 3.59-4.876 3.59-5.165 0-.153-.827-.278-1.839-.278-1.945 0-2.028-.057-1.515-1.02.186-.35.188-.97.004-1.45-.26-.679-.549-.816-1.52-.724-1.153.11-1.198.173-1.167 1.653l.03 1.54h-5.071l.113 1.511c.104 1.382.202 1.513 1.168 1.553 1.147.048 2.44 1.305 2.44 2.371 0 1.143-1.263 2.295-2.518 2.295h-1.16v7.487h5.15zm-1.226-14.755c0-1.412.884-2.277 2.33-2.277 1.446 0 2.33.865 2.33 2.277 0 1.036.085 1.104 1.393 1.104s1.408-.079 1.642-1.304c1.18-6.19-3.617-12.744-10.071-13.761l-1.549-.243v5.525h1.104c1.274 0 2.575 1.11 2.575 2.191 0 1.034-1.618 2.52-2.742 2.52-.914 0-.937.06-.937 2.536v2.536h1.963c1.941 0 1.962-.011 1.962-1.104zM9.262 16.132c-.145-.35-.262-2.02-.262-3.714.002-2.628.152-3.38 1.023-5.13 2-4.02 5.778-6.73 9.895-7.098l2.14-.19v6.138h1.084c1.54 0 2.227.708 2.227 2.295s-.685 2.295-2.227 2.295h-1.084v6.038H19.36c-1.484 0-2.797-.098-2.92-.218-.121-.12-.036-.616.19-1.102.344-.745.284-1.008-.378-1.659-.686-.676-.91-.719-1.766-.335-.892.4-.96.57-.747 1.877l.233 1.437H11.75c-1.77 0-2.276-.13-2.488-.634zm3.53-1.445c.121-1.237 1.201-2.269 2.375-2.269.987 0 2.476 1.636 2.476 2.72 0 .899.083.937 1.748.832l1.747-.11.106-3.11.106-3.11 1.55.03c1.48.03 1.555-.02 1.663-1.122.138-1.395-.937-2.197-2.113-1.576-.39.206-.805.373-.92.373-.115 0-.207-1.466-.207-3.26V.825l-1.197.001c-3.152 0-7.955 3.6-9.553 7.16-.897 1.993-1.253 5.66-.691 7.083.342.87.578 1.003 1.598.905 1.05-.1 1.21-.256 1.31-1.286z" style="fill:#c2dfff;stroke-width:.999999"/>
</svg>