<svg xmlns="http://www.w3.org/2000/svg" width="43.84" height="44.8">
<path d="M19.152 43.615c-.15-.404-.47-1.508-.708-2.452-.239-.944-.583-1.758-.764-1.809-.182-.05-1.05-.314-1.93-.586l-1.6-.494-1.813 1.423c-.998.783-1.923 1.423-2.057 1.423-.217 0-3.65-2.261-3.65-2.405 0-.032.41-1.052.91-2.266l.91-2.209-1.15-1.686-1.15-1.687-2.536.078-2.535.078-.56-1.592c-.86-2.443-.807-2.597 1.36-3.998l1.969-1.272.03-2.045.032-2.044-1.845-1.194C1.05 18.22.147 17.565.058 17.42c-.09-.144.08-1.135.377-2.201l.54-1.94H6.193l1.143-1.64L8.48 10l-.904-2.194-.905-2.194 1.12-.923c2.33-1.92 2.446-1.926 4.444-.218l1.788 1.527 1.983-.625 1.983-.625.648-2.374L19.284 0H23.735l.647 2.368.648 2.367 1.76.584c.968.32 1.851.587 1.963.592.112.005.99-.639 1.952-1.431s1.86-1.44 1.994-1.44c.529 0 3.37 2.322 3.37 2.754 0 .252-.353 1.328-.784 2.39l-.785 1.93 1.145 1.503 1.145 1.503 2.57.16 2.571.16.595 1.754c.327.965.535 1.912.46 2.105-.073.192-.989.904-2.034 1.58l-1.9 1.23.029 2.033.029 2.033 2 1.264c1.1.696 2 1.384 2 1.53 0 .147-.29 1.124-.644 2.171l-.643 1.904-2.557-.116c-1.438-.065-2.556.014-2.556.18 0 .163-.509.89-1.13 1.617l-1.13 1.32.81 1.992c.445 1.097.81 2.178.81 2.404 0 .463-2.77 2.679-3.349 2.679-.207 0-.942-.47-1.634-1.045-2.323-1.93-2.077-1.858-4.153-1.218l-1.904.588-.646 2.358-.646 2.357-2.157.095c-1.998.087-2.176.04-2.43-.64zm4.632-2.248.606-2.313 2.24-.83 2.24-.83 1.951 1.532 1.952 1.532 1.328-.977c.73-.537 1.329-1.039 1.329-1.115 0-.076-.36-1.025-.8-2.108-.944-2.32-.968-2.6-.277-3.174.288-.24.866-.977 1.284-1.64l.76-1.204h5.088l.365-1.36c.2-.748.42-1.453.49-1.566.069-.113-.81-.792-1.953-1.508l-2.077-1.303v-4.748l2.045-1.333 2.046-1.332-.517-1.616-.516-1.615-2.446.11-2.445.112-1.084-1.57a107.93 107.93 0 0 0-1.375-1.957c-.187-.25.018-1.16.575-2.55.476-1.19.806-2.221.733-2.294-.072-.072-.683-.543-1.356-1.045l-1.225-.913-1.857 1.503-1.858 1.502-2.357-.774-2.358-.775-.4-1.804c-.62-2.801-.77-2.973-2.506-2.86l-1.5.096-.574 1.92c-.807 2.699-.79 2.68-3.182 3.482l-2.156.724-1.844-1.5-1.843-1.5-1.36.933c-.748.512-1.36.989-1.36 1.058 0 .07.38 1.15.843 2.402l.843 2.275-.788.863a21.333 21.333 0 0 0-1.453 1.816c-.65.932-.717.951-3.056.854l-2.391-.1-.52 1.523c-.285.838-.518 1.567-.518 1.62 0 .052.896.665 1.993 1.362l1.993 1.267.023 2.472.024 2.471-2.017 1.265C1.457 26.542.55 27.142.55 27.179c0 .037.23.74.51 1.564l.51 1.497h4.936l1.102 1.52a76.775 76.775 0 0 1 1.346 1.9c.135.21-.124 1.361-.576 2.56l-.821 2.18.896.736c1.692 1.388 1.761 1.386 3.578-.122.936-.778 1.868-1.41 2.07-1.406.203.005 1.292.331 2.421.725l2.053.717.621 2.315.622 2.315h3.36zm-2.514-3.952c-.347-.349-.296-2.055.06-2.055.461 0 .563.392.362 1.389-.1.5-.29.8-.422.666zm-7.59-2.455c.015-.583.906-1.67 1.16-1.416.257.257-.52 1.816-.905 1.816-.146 0-.26-.18-.255-.4zm14.453-.389c-.532-1.167.136-1.333.731-.181.408.788.42.97.065.97-.24 0-.598-.355-.796-.789zM8.23 29.611c0-.336 1.031-.971 1.579-.971.627 0 .35.533-.474.909-.99.45-1.105.457-1.105.062zm25.36-.082c-.779-.375-.968-.895-.32-.879.456.012 1.52.757 1.52 1.065 0 .28-.347.226-1.2-.186zm-13.187-6.473c-.315-.38-1.074-.496-3.234-.496-1.552 0-2.91-.144-3.02-.32-.126-.204.832-.32 2.646-.32 2.635 0 2.9-.06 3.61-.817.81-.861.818-.91.895-5.362.032-1.786.167-2.746.37-2.621.182.113.32 1.75.32 3.82 0 2.882.1 3.706.496 4.034.302.25.459.798.4 1.399-.082.843-.24 1.001-1.084 1.083-.6.059-1.148-.098-1.399-.4zm1.847-.9c.127-.662-.797-1.108-1.284-.62-.488.488-.042 1.411.619 1.284a.907.907 0 0 0 .665-.665zm12.54.084c0-.176.432-.32.96-.32s.96.144.96.32c0 .176-.432.32-.96.32s-.96-.144-.96-.32zm-28.64-.32c.108-.176.62-.32 1.138-.32.518 0 .942.144.942.32 0 .176-.513.32-1.14.32-.677 0-1.058-.13-.94-.32zm2.64-6.746c-.588-.342-.763-.934-.276-.934.157 0 .625.283 1.04.63.82.683.266.904-.764.304zm24.675-.305c.822-.684 1.325-.806 1.325-.32 0 .364-1.057.976-1.66.96-.24-.006-.097-.28.335-.64zm-19.255-4.8c-.611-.872-.683-1.269-.232-1.269.403 0 1.048 1.212.892 1.678-.066.199-.363.015-.66-.41zm13.87.251c.015-.583.906-1.67 1.16-1.416.257.257-.52 1.816-.905 1.816-.146 0-.26-.18-.255-.4zm-7.05-2.48c0-.656.137-.967.39-.883.216.072.392.47.392.883 0 .414-.176.811-.391.883-.254.084-.391-.227-.391-.883Z" style="fill:#C2DFFF;stroke-width:1"/>
</svg>