<svg xmlns="http://www.w3.org/2000/svg" width="50" height="50">
   <path d="M18.29 49.133c-.494-.488-.9-1.105-.9-1.371 0-.267-.574-.69-1.277-.941-.964-.343-1.351-.738-1.578-1.607-.231-.887-.527-1.178-1.283-1.266-1.055-.122-2.09-1.268-2.09-2.313 0-.423-.28-.643-.825-.648-1.03-.007-1.515-.32-2.052-1.325-.626-1.172-.523-1.745.539-2.989 1.083-1.267 1.156-1.085-1.638-4.048-1.078-1.146-1.373-1.282-2.148-.99-1.002.375-1.05.356-3.496-1.383-.958-.682-1.646-1.391-1.53-1.58.118-.186 1.006.235 1.975.935.968.7 2.069 1.269 2.444 1.26.458-.008 2.415-2.33 5.905-7.005 2.872-3.846 5.221-7.163 5.221-7.372 0-.455-3.226-2.94-3.816-2.94-.228 0-2.553 2.837-5.169 6.305-4.472 5.93-5.304 6.865-5.304 5.96 0-.442 8.634-11.884 9.46-12.536.944-.745 1.737-.526 3.736 1.031 1.691 1.317 1.879 1.599 1.69 2.528l-.212 1.045h2.567c1.462 0 3.139.234 3.893.545 1.241.51 1.408.496 2.645-.226 2.129-1.248 3.151-1.397 6.097-.892l2.733.469V16.61c0-1.007.275-1.354 1.98-2.512 1.4-.95 2.2-1.274 2.735-1.106.619.193 10.308 12.43 10.308 13.018 0 .84-1.414-.729-5.538-6.143-2.646-3.475-4.944-6.318-5.104-6.318-.584 0-3.465 2.396-3.578 2.976-.105.543 8.055 11.887 10.053 13.973l.843.881 1.963-1.331c2.018-1.37 2.46-1.556 2.46-1.033 0 .429-3.795 2.949-4.443 2.949-.297 0-.752-.203-1.01-.452-.379-.363-.714-.177-1.718.958-1.09 1.231-1.219 1.58-1.026 2.773.186 1.147.072 1.512-.72 2.291-.519.512-1.363.93-1.875.93-.66 0-.933.193-.933.658 0 .954-1.534 2.23-2.68 2.23-.739 0-.984.18-.984.722 0 1.064-1.305 2.166-2.565 2.166-.684 0-1.099.187-1.099.494 0 .27-.341.92-.759 1.444-.916 1.149-2.245 1.234-3.884.25l-1.162-.7-1.683 1.775c-2.64 2.781-3.67 3.106-5.169 1.628zm4.122-1.731c1.767-1.777 2.091-2.336 1.984-3.418-.065-.65-1.433-1.258-2.256-1-.732.228-4.017 3.943-4.017 4.541 0 .493 1.398 1.772 1.936 1.772.26 0 1.318-.852 2.355-1.896zm-1.958-4.154c1.338-1.44 2.432-2.792 2.432-3.002 0-.967-.814-1.78-1.782-1.78-.811 0-1.536.56-3.469 2.68-2.582 2.831-2.928 3.803-1.668 4.674 1.1.758 1.731.395 4.487-2.573zm9.09 2.563c1.356-1.207.823-2.084-2.362-3.875-.961-.541-1.648-1.143-1.527-1.337.132-.209.692-.074 1.383.334 3.928 2.321 4.688 2.654 5.558 2.438 1.063-.261 1.594-1.753.914-2.561-.249-.296-1.669-1.198-3.156-2.008-1.487-.808-2.704-1.622-2.704-1.806 0-.555.335-.42 4.094 1.65 1.984 1.092 3.8 1.986 4.033 1.986.675 0 1.765-1.134 1.765-1.835 0-.816-.982-1.563-4.702-3.577-2.746-1.486-3.572-2.171-2.622-2.171.201 0 2.256 1.056 4.563 2.347 2.307 1.29 4.395 2.347 4.64 2.347.68 0 1.787-1.12 1.787-1.805 0-.337-.29-.861-.642-1.168-.956-.832-15.762-8.945-16.3-8.931-.255.005-1.122.412-1.93.9-2.486 1.51-5.638 1.004-6.773-1.085-.737-1.357-.305-1.847 3.632-4.116 4.042-2.329 3.955-2.697-.671-2.877l-3.227-.124-4.415 5.893-4.415 5.894.695.912a56.312 55.495 0 0 0 1.964 2.351l1.268 1.442 1.226-1.17c.805-.768 1.588-1.171 2.278-1.171 1.119 0 2.393.886 2.393 1.662 0 .365.248.381 1.133.078.95-.327 1.287-.274 2.106.327.536.395 1.057 1.18 1.16 1.746.129.722.454 1.092 1.093 1.241 1.34.311 2.114 1.86 1.603 3.2-.369.96-.323 1.097.482 1.459.489.219 1.128.961 1.42 1.65.508 1.2 1.965 2.313 3.066 2.343.286.008.822-.254 1.19-.583zm-12.223-5.513c2.757-2.995 3.137-3.972 1.877-4.841-1.158-.801-1.818-.427-4.669 2.645-2.597 2.798-3.06 3.772-2.195 4.624 1.095 1.078 2.298.492 4.987-2.428zm-3.809-2.284c2.028-2.24 2.45-3.339 1.607-4.17-.923-.91-2.013-.43-4.265 1.882-1.242 1.273-2.256 2.52-2.256 2.77 0 .763 1.163 1.775 2.042 1.775.556 0 1.504-.745 2.873-2.257zm29.69-7.806c-.096-.272-2.026-2.971-4.29-5.999l-4.118-5.504-2.564-.47c-4.168-.763-4.421-.698-10.421 2.718-3.035 1.726-5.628 3.314-5.76 3.525-.132.21.282.845.922 1.408 1.52 1.338 2.924 1.32 5.398-.077l1.953-1.1 8.168 4.508 8.167 4.51 1.359-1.513c.748-.832 1.282-1.734 1.186-2.006zM15.01 7.775c-1.344-1.59-2.38-3.079-2.301-3.312.13-.384 5.415 5.443 5.415 5.972 0 .711-.942-.095-3.114-2.66zm17.038 2.59c0-.198 1.004-1.552 2.232-3.01 2.857-3.392 2.777-3.314 3.023-2.923.115.184-.873 1.62-2.196 3.191-2.378 2.827-3.06 3.437-3.06 2.741ZM19.512 5.156c-.746-2.034-1.223-3.831-1.057-3.995.277-.273 2.966 6.317 2.966 7.273 0 1.218-.695.028-1.909-3.278zm9.149 3.492c-.252-.248 2.148-7.01 2.676-7.538.644-.645.355.777-.816 4.007-1.217 3.358-1.497 3.89-1.861 3.532Zm-3.944-4.688c0-2.69.13-4.095.367-3.95.208.126.366 1.929.366 4.173 0 2.392-.144 3.95-.366 3.95-.224 0-.367-1.631-.367-4.173z" style="fill:#c2dfff;stroke-width:1"/>
</svg>