
<svg viewBox="0 -2 50 60" xmlns="http://www.w3.org/2000/svg"><path d="M.925 56.677c-.911-.45-1.067-1.13-.82-3.57C.6 48.2 2.643 43.73 6.016 40.171c3.68-3.882 8.273-6.16 13.562-6.723 1.4-.15 9.448-.15 10.848 0 5.18.553 9.788 2.8 13.37 6.517 1.719 1.785 2.828 3.367 3.95 5.63a21.976 21.976 0 0 1 2.152 7.51c.244 2.408.078 3.135-.814 3.567l-.473.229H24.994c-23.461 0-23.619-.002-24.07-.225Zm45.644-3.458c0-.596-.535-3.02-.895-4.055-.5-1.441-1.557-3.503-2.415-4.711-.921-1.298-2.883-3.304-4.116-4.21a18.281 18.281 0 0 0-8.45-3.408c-1.51-.2-9.531-.235-11.03-.049-3.528.438-6.504 1.667-9.288 3.835-1.154.898-2.687 2.52-3.633 3.844-.86 1.204-1.924 3.273-2.416 4.7-.358 1.04-.891 3.463-.891 4.054v.348h43.134ZM23.112 29.885a15.135 15.135 0 0 1-8.679-4.326c-2.223-2.223-3.5-4.607-4.18-7.803-.277-1.296-.277-4.234 0-5.53.68-3.197 1.96-5.587 4.178-7.805C18.461.39 24.152-.996 29.6.724c4.478 1.415 8.255 5.195 9.672 9.68.545 1.725.678 2.627.677 4.587-.002 1.952-.137 2.868-.682 4.6-1.378 4.38-5.118 8.17-9.484 9.612-1.958.646-4.833.94-6.67.682zm4.628-3.543c4.244-1.056 7.55-4.381 8.633-8.683.34-1.352.34-3.984 0-5.336-.909-3.61-3.416-6.6-6.734-8.03-1.67-.72-2.647-.912-4.637-.912-1.413 0-1.902.045-2.71.248a11.88 11.88 0 0 0-8.604 8.472c-.248.918-.286 1.287-.291 2.834-.008 2.05.176 3 .904 4.682 1.435 3.316 4.512 5.906 7.977 6.715 1.312.307 1.423.316 3.057.274 1.021-.026 1.79-.11 2.405-.264z" style="stroke-width:1"/></svg>