<svg xmlns="http://www.w3.org/2000/svg" width="44.48" height="44.8">
<path d="M2.148 40.332 0 36.522l2.162-3.72 2.163-3.722h8.926l2.17 3.727 2.169 3.726-2.167 3.81-2.166 3.812-4.48-.007-4.48-.006-2.149-3.81zm11.85 1.028a569.233 569.233 0 0 0 1.991-3.468l.741-1.307-1.897-3.414-1.896-3.414-4.138.081-4.137.082-1.699 2.88c-.935 1.584-1.78 3.124-1.879 3.422-.108.328.598 1.874 1.792 3.92l1.97 3.378h7.902zm12.859 2.464c0-.555 8.445-15.036 8.715-14.945.38.126 8.804 14.766 8.656 15.041-.21.39-17.371.295-17.371-.096zm16.32-.506c0-.324-7.493-13.239-7.675-13.229-.151.008-7.386 12.462-7.632 13.138-.063.172 3.078.293 7.6.293 4.239 0 7.707-.09 7.707-.202zM19.43 40.683c-1.445-.22-2.118-.525-1.82-.823.077-.077 1.217 0 2.533.172 1.786.233 3.028.201 4.89-.124 2.593-.452 3.708-.181 1.593.388-1.706.459-5.415.658-7.196.387zm19.092-10.48c1.483-3.614 1.592-4.154 1.603-7.963.006-2.112-.06-4.142-.148-4.511-.088-.369-.027-.729.136-.8.52-.226.858 1.695.877 4.991.016 2.71-.122 3.614-.897 5.901-.504 1.486-1.12 2.766-1.367 2.844-.332.105-.386-.018-.204-.461zM3.53 25.174c-.194-1.114-.352-2.578-.352-3.253 0-1.81.66-5.28 1.003-5.28.179 0 .198.676.048 1.68-.32 2.144-.32 5.056 0 7.2.362 2.428-.27 2.114-.699-.346zm1.768-9.943c-5.59-2.081-7-9.404-2.563-13.3C4.386.48 5.701 0 8.025 0c3.637 0 6.48 2.146 7.506 5.667 1.408 4.825-1.938 9.569-6.977 9.894-1.276.082-2.473-.04-3.257-.331Zm5.826-1.023C17.945 10.807 15.587.64 7.977.64c-6.04 0-9.333 6.815-5.636 11.661C3.445 13.75 6.1 15.04 7.977 15.04c.946 0 2.072-.298 3.146-.833zM29.097 7.52V0h15.36v15.04h-15.36zm14.646-.08.086-6.8H29.737v13.772l6.96-.086 6.96-.086zM25.417 3.948c-1.853-.432-5.06-.397-7.44.083-.639.128-1.04.081-1.04-.122 0-.531 4.403-1.128 6.705-.91 2.513.239 4.495.757 4.495 1.176 0 .37-.262.348-2.72-.227z" style="fill:#C2DFFF;stroke-width:1"/>
</svg>