
<svg xmlns="http://www.w3.org/2000/svg" width="50" height="50">
    <path d="M10.481 45.3c0-.381.261-1.969.58-3.528l.58-2.834-1.357-1.333c-1.784-1.752-2.233-2.49-2.643-4.344-.54-2.449.086-4.55 1.995-6.7.9-1.012 1.89-1.841 2.199-1.841.353 0-.062.671-1.128 1.822-1.913 2.07-2.402 3.118-2.402 5.147 0 2.074.562 3.274 2.444 5.215l1.676 1.73-.428 2.347c-.235 1.291-.428 2.52-.428 2.73 0 .213.879-.538 1.952-1.668l1.951-2.053 1.987.45c6.512 1.473 13.938-.322 17.285-4.178.634-.729 1.34-1.26 1.571-1.183.666.225-2.407 3.347-4.33 4.398-2.867 1.57-5.735 2.243-9.534 2.236-1.895-.005-4.18-.216-5.078-.47l-1.632-.462-2.358 2.611c-1.297 1.436-2.48 2.61-2.63 2.608-.15-.003-.272-.318-.272-.7zm33.713-9.292-2.378-2.614-2.126.43c-6.112 1.242-12.846-.233-16.703-3.658-1.415-1.256-2.712-3.504-2.712-4.699 0-1.1.601-.911.835.261.51 2.566 3.398 5.174 7.42 6.702 2.844 1.08 7.844 1.355 10.968.604l2.358-.567 2.112 2.086 2.111 2.088-.246-1.467a88.357 88.357 0 0 0-.531-2.843c-.269-1.295-.205-1.44 1.098-2.484 3.065-2.455 3.758-6.678 1.55-9.452-2.984-3.749-7.026-5.393-13.258-5.394-4.095 0-5.057-.332-2.216-.763 4.282-.649 10.307.727 13.587 3.103 4.761 3.448 5.285 9.409 1.13 12.873l-1.31 1.09.616 3.251c.692 3.652.73 4.112.344 4.084-.15-.009-1.342-1.194-2.649-2.631zM3.013 27.196c.132-.656.427-2.286.655-3.623l.416-2.428-1.31-1.163C-2.38 15.406-.08 8.138 7.424 5.3c9.356-3.541 21.268.527 22.46 7.669.72 4.309-3.39 8.86-9.442 10.454-2.51.662-8.216.74-10.55.146l-1.637-.416-2.36 2.616c-1.3 1.44-2.533 2.618-2.742 2.618-.234 0-.288-.454-.14-1.192zm6.834-4.465c4.028 1.084 10.17.484 13.794-1.35 1.825-.923 4.095-3.033 4.867-4.523.74-1.426.74-4.15 0-5.58-2.1-4.066-7.086-6.407-13.673-6.418C9.147 4.85 4.383 6.859 2.033 10.26c-2.08 3.01-1.648 6.157 1.236 8.997l1.748 1.722-.526 2.51c-.29 1.383-.528 2.679-.53 2.88-.003.202.891-.65 1.987-1.892l1.994-2.26ZM7.58 15.916c-.4-.404-.726-1.064-.726-1.467 0-.945 1.242-2.201 2.176-2.201.934 0 2.177 1.256 2.177 2.2 0 .404-.327 1.064-.726 1.468-.399.403-1.052.734-1.45.734-.4 0-1.052-.33-1.451-.734zm2.331-.577c.314-.317.57-.717.57-.89 0-.408-1.047-1.468-1.45-1.468-.354 0-1.451 1.039-1.451 1.373 0 .335 1.163 1.562 1.481 1.562.154 0 .537-.26.85-.577zm3.915.74c-.995-.705-1.069-2.377-.143-3.225.828-.756 1.489-.767 2.521-.035 1.007.713 1.043 2.124.08 3.097-.872.883-1.392.917-2.458.163zm1.757-.544c.85-.458.912-1.554.127-2.212-1.13-.95-2.547.89-1.587 2.06.522.635.561.64 1.46.152zm4.047.544c-1.157-.82-1.083-2.53.142-3.343.85-.562 1.049-.572 1.905-.088 1.314.743 1.505 2.599.351 3.416-1.03.729-1.385.731-2.398.015zm2.023-.603c.605-.613.544-1.581-.14-2.154-1.13-.948-2.547.89-1.586 2.06.531.649 1.144.682 1.726.093zm6.601 11.34c-1.79-.913-1.072-3.93.938-3.93 1.892 0 2.717 2.726 1.158 3.83-.963.683-.95.682-2.096.1zm2.064-1.23c.3-.79-.344-1.783-1.157-1.783-.356 0-.813.266-1.016.591-.554.889-.042 1.793 1.016 1.793.526 0 1.028-.261 1.157-.6zm3.842 1.327c-1.81-.736-1.145-4.027.812-4.027 1.005 0 2.35 1.164 2.35 2.033 0 .599-1.576 2.385-2.069 2.344-.158-.011-.651-.17-1.093-.35zm2.06-1.434c.407-.768-.32-1.86-1.237-1.86-.757 0-1.369.999-1.111 1.816.306.974 1.84 1.003 2.348.044zm3.465.93c-.502-.507-.912-1.178-.912-1.49 0-.802 1.316-2.033 2.176-2.033.905 0 2.176 1.245 2.176 2.13 0 .895-.73 1.777-1.717 2.073-.59.178-1.056-.006-1.723-.68zm2.333-.75c.521-.636-.08-2.04-.874-2.04-.53 0-1.646.963-1.646 1.42 0 1.04 1.81 1.485 2.52.62z" style="fill:#c2dfff;stroke-width:1"/>
</svg>