
<svg viewBox="0 -12 50 60" xmlns="http://www.w3.org/2000/svg">
<path d="M23.144 35.905a544.415 544.415 0 0 0-1.27-.144c-6.106-.688-10.867-3.53-12.185-7.275l-.275-.782-.049-5.457-.049-5.457-4.34-1.88C.336 12.898.165 12.8.028 12.073a2.263 2.263 0 0 1 0-.696c.148-.788-.212-.612 12.676-6.19C20.361 1.874 24.804 0 25.007 0c.202 0 4.643 1.873 12.297 5.185 12.897 5.581 12.521 5.398 12.67 6.192.036.192.035.514-.003.715-.119.636-.595.963-2.722 1.87l-1.919.817-.026 9.314c-.025 9.234-.027 9.316-.227 9.584-.381.51-.696.673-1.304.673-.46 0-.625-.048-.907-.264-.705-.538-.666.022-.666-9.443v-8.505l-.757.33-.758.329-.048 5.454-.05 5.453-.274.782c-1.29 3.664-5.739 6.396-11.794 7.242-.986.138-4.667.26-5.375.177zm4.063-3.174c4.778-.465 8.756-2.371 9.932-4.76l.321-.653.029-4.574.028-4.573-.322.137c-.176.075-2.92 1.264-6.098 2.641-3.594 1.558-5.896 2.505-6.091 2.505-.196 0-2.5-.948-6.097-2.507-3.18-1.378-5.926-2.567-6.102-2.64l-.32-.136.027 4.574.027 4.573.322.653c.967 1.964 3.914 3.667 7.643 4.415 2.147.431 4.546.555 6.701.345zm3.973-15.214c4.177-1.81 5.983-2.636 5.865-2.684-.094-.039-2.875-.403-6.18-.81-3.306-.407-6.136-.765-6.29-.795-.396-.079-1.015-.73-1.094-1.154-.11-.585.034-1.042.453-1.441.214-.204.526-.39.71-.425.197-.037 3.92.388 9.328 1.064l9 1.126.736-.311c.405-.171.737-.333.737-.36.001-.105-19.34-8.418-19.515-8.388-.246.043-19.373 8.325-19.372 8.388 0 .071 19.27 8.4 19.441 8.402.08.001 2.862-1.174 6.181-2.612z" style="stroke-width:1"/>
</svg>