<svg xmlns="http://www.w3.org/2000/svg" xml:space="preserve" width="32" height="32" viewBox="0 0 8.467 8.467"><path d="M3.27 7.498v-.51l-.034.009a1.985 1.985 0 0 1-.814-.005 1.29 1.29 0 0 1-.59-.347c-.11-.112-.187-.23-.301-.461a3.912 3.912 0 0 0-.378-.611 1.136 1.136 0 0 0-.18-.17c-.107-.077-.142-.13-.11-.163.025-.025.222-.032.331-.012.225.043.428.21.613.502.239.38.528.566.915.59.157.01.323-.01.46-.056l.08-.026.02-.143c.032-.242.11-.472.195-.576l.04-.05-.058-.009c-.573-.095-.974-.267-1.303-.56-.32-.285-.534-.725-.585-1.198-.048-.44.012-1.145.127-1.49.062-.19.126-.302.25-.443l.097-.107L2 1.522a1.587 1.587 0 0 1-.048-.778c.032-.15.098-.355.115-.355.01 0 .057.01.105.024.255.068.529.29.771.623l.084.115.05-.04C3.25.975 3.68.897 4.254.897c.552 0 .965.071 1.147.198l.077.054.087-.122c.233-.328.57-.585.826-.629l.061-.01.037.115c.054.173.076.289.086.465.012.193-.008.354-.069.55l-.045.147.095.105c.052.057.12.15.152.207.117.206.195.55.225.985.045.647-.003 1.01-.182 1.387-.294.614-.835.966-1.707 1.111l-.06.01.032.035c.047.051.119.221.166.392l.042.15.005.98.006.98H3.27Z" style="fill:#3B9C9C;stroke-width:1"/></svg>