<svg xmlns="http://www.w3.org/2000/svg" width="44.8" height="32.64">
<path d="M19.291 31.618c-.352-.2-.746-.52-.875-.71-.13-.192-.237-4.182-.24-8.869l-.005-8.52-2.262-2.76c-2.507-3.057-2.716-3.555-3.037-7.238C12.619.625 12.884 0 14.363 0c1.257 0 1.782.958 2.049 3.742.181 1.891.398 2.533 1.218 3.6l.998 1.298h7.168l.966-1.313c.762-1.036 1.006-1.762 1.157-3.44C28.183.969 28.632.16 29.99.16c1.63 0 1.813.557 1.4 4.282l-.356 3.201-2.43 2.963-2.432 2.962v8.553c0 7.346-.07 8.624-.502 9.056-.776.776-1.971.953-2.794.414-.627-.41-.818-.416-1.339-.035-.728.532-1.383.55-2.245.062zm1.94-.712c.57-.417.626-.927.69-6.24.039-3.182.183-5.822.32-5.866.138-.044.288 2.584.334 5.84.073 5.107.158 5.975.622 6.32.715.533 1.224.504 1.831-.103.432-.432.503-1.707.503-9.054V13.25l2.42-2.973 2.421-2.974.347-2.818c.387-3.14.257-3.846-.705-3.846-.837 0-1.194.879-1.446 3.567-.233 2.473-1.533 4.624-2.985 4.94-.469.103-.996.229-1.172.281-.176.052-.668 1.124-1.093 2.382-.425 1.258-.92 2.239-1.1 2.179-.18-.06-.672-1.144-1.093-2.409-.701-2.103-.842-2.3-1.64-2.3-.926 0-1.33-.264-2.593-1.702-.63-.715-.861-1.47-1.12-3.647-.342-2.864-.79-3.609-1.914-3.178-.495.19-.535.5-.334 2.637.331 3.534.533 4.003 3.023 7.025l2.264 2.747v8.514c0 7.473.065 8.585.53 9.099.637.703 1.065.733 1.89.131zm1.426-19.24c.17-.448.398-1.168.506-1.6.183-.728.111-.786-.984-.786-.82 0-1.13.122-1.015.4.091.22.342.94.557 1.6.215.66.444 1.2.509 1.2.064 0 .256-.366.427-.814zM3.77 29.12c-.585-.586-.64-1.068-.64-5.68l-.002-5.04-.647 1.06c-.516.848-.821 1.04-1.518.96-1.454-.167-1.284-1.523.652-5.22L3.29 12h6.4l1.672 3.36c1.938 3.894 2.04 4.91.508 5.059-.84.081-1.106-.06-1.507-.8-.455-.839-.488-.573-.5 3.981-.012 4.444-.07 4.937-.653 5.52-.722.722-1.342.8-2.295.29-.473-.253-.75-.253-1.003 0-.538.538-1.435.417-2.142-.29zm1.856-.384c.257-.257.384-1.685.384-4.32 0-2.41.124-3.936.32-3.936s.32 1.486.32 3.817c0 3.044.102 3.92.503 4.32.581.58.76.605 1.417.19.39-.246.51-1.46.64-6.475l.16-6.172.947 1.84c.619 1.203 1.145 1.84 1.52 1.84.315 0 .573-.15.573-.335 0-.185-.71-1.84-1.577-3.68L9.256 12.48H3.777l-1.603 3.194c-.881 1.757-1.603 3.413-1.603 3.68 0 1.09 1.02.38 1.83-1.274.475-.968.978-1.76 1.117-1.76.14 0 .253 2.729.253 6.064 0 5.438.058 6.098.56 6.39.727.424.838.42 1.296-.038zm29.255.526c-.685-.48-.71-.689-.712-5.68L34.17 18.4l-.634 1.04c-.736 1.206-2.018 1.42-2.551.423-.265-.494.016-1.354 1.41-4.32l1.74-3.703h6.44l1.835 3.684c1.98 3.98 2.023 4.69.293 4.897-.65.078-.932-.09-1.22-.72-.205-.452-.494-.821-.642-.821-.148 0-.269 2.21-.269 4.91 0 4.544-.049 4.955-.656 5.505-.56.507-.8.539-1.643.22-.655-.247-1.18-.268-1.562-.063-.776.415-.997.392-1.828-.19zm1.785-.526c.257-.257.384-1.685.384-4.32 0-2.41.124-3.936.32-3.936s.32 1.486.32 3.817c0 3.044.102 3.92.503 4.32.604.604.847.625 1.353.119.27-.27.384-2.108.384-6.221 0-3.492.127-5.916.316-6.032.173-.108.707.604 1.187 1.58.815 1.664 1.424 2.159 1.836 1.492.096-.156-.554-1.812-1.446-3.68l-1.622-3.395h-5.619l-1.488 3.206c-1.771 3.818-1.8 3.922-1.091 4.077.403.088.79-.361 1.427-1.661.48-.98.988-1.782 1.127-1.782.14 0 .253 2.707.253 6.016 0 5.963.136 6.784 1.12 6.784.194 0 .525-.173.736-.384zM5.015 10.08c-1.735-.943-1.93-3.414-.365-4.645 1.53-1.203 3.914-.578 4.591 1.203.45 1.184-.194 2.865-1.32 3.448-1.13.583-1.823.582-2.906-.006Zm2.874-.829c1.027-.957.848-2.809-.336-3.47-1.734-.97-3.777.683-3.101 2.507.625 1.687 2.189 2.125 3.437.963Zm27.538.374c-1.193-1.193-1.23-2.507-.107-3.84 1.743-2.072 4.931-.874 4.931 1.852 0 1.021-.19 1.427-.984 2.095-1.334 1.122-2.648 1.085-3.84-.107zm3.341-.368c1.616-1.271.7-3.817-1.373-3.817-1.037 0-2.264 1.246-2.264 2.298 0 .79 1.393 2.182 2.183 2.182.336 0 .99-.298 1.454-.663zM20.331 6.694c-.308-.179-.776-.744-1.04-1.254-1.661-3.213 1.431-6.3 4.647-4.637 1.192.617 1.593 1.383 1.593 3.04 0 1.9-1.329 3.2-3.255 3.187-.762-.005-1.637-.156-1.945-.336zm3.775-1.08c1.66-1.66.512-4.654-1.785-4.654-1.36 0-2.87 1.51-2.87 2.87 0 1.404 1.234 2.57 2.72 2.57.794 0 1.393-.243 1.935-.785z" style="fill:#C2DFFF;stroke-width:1"/>
</svg>