
<svg viewBox="0 -5 50 60" xmlns="http://www.w3.org/2000/svg"><path d="M5.135 49.781c-1.545-.386-2.668-1.384-3.279-2.913l-.248-.622-.03-9.092-.028-9.092-.35-.065a1.732 1.732 0 0 1-.632-.288C-.008 27.256 0 27.356 0 20.226c0-4.04.04-6.792.106-7.135A4.62 4.62 0 0 1 4.065 9.37c.417-.054 2.87-.1 5.45-.101l4.693-.003.063-.286c.548-2.474 1.583-4.407 3.2-5.977C18.786 1.727 20.509.768 22.379.27 23.263.034 23.596 0 25 0c1.41 0 1.736.034 2.645.275 4.198 1.113 7.093 4.23 8.084 8.704l.063.286 4.692.003c2.58.002 5.034.047 5.451.101a4.62 4.62 0 0 1 3.959 3.722c.065.343.106 3.096.106 7.135 0 7.13.008 7.03-.569 7.483-.155.122-.44.252-.631.288l-.35.065-.029 9.092-.029 9.092-.249.622c-.627 1.57-1.836 2.613-3.413 2.945-.837.176-38.887.145-39.595-.032zm39.345-3.17c.339-.155.492-.308.646-.647.194-.429.201-.752.204-9.184l.002-8.74H29.668v.991c0 1.068-.094 1.366-.569 1.81l-.277.26-3.7.027c-3.55.027-3.715.02-4.039-.18-.599-.37-.75-.751-.75-1.896l-.001-1.012H4.668l.002 8.74c.002 8.432.01 8.755.204 9.184.154.34.307.492.646.646.435.198.848.202 19.48.202s19.045-.004 19.48-.202zM26.556 26.483v-1.556h-3.112v3.112h3.112zm-6.224-2.578c0-.89.03-1.067.235-1.374.469-.701.555-.715 4.433-.715 3.878 0 3.964.014 4.433.715.205.307.235.485.235 1.374v1.022h17.22v-5.62c0-5.389-.009-5.639-.205-6.045-.113-.233-.358-.517-.545-.63-.335-.202-.6-.205-21.138-.205-20.539 0-20.803.003-21.138.206-.187.112-.432.396-.545.629-.197.406-.205.656-.205 6.045v5.62h17.22ZM32.505 8.72c-.598-2.03-2.15-3.883-4.02-4.802-1.314-.644-2.046-.816-3.485-.816-1.455 0-2.186.174-3.506.834-1.926.963-3.479 2.858-4.047 4.94l-.107.389h15.325z" style="stroke-width:1"/></svg>