<svg xmlns="http://www.w3.org/2000/svg" width="482" height="482"><path d="M49.5 479.889c-14.888-3.725-25.716-13.346-31.603-28.08l-2.397-6-.281-87.644-.281-87.644-3.368-.632c-1.852-.347-4.592-1.595-6.09-2.773C-.073 262.747 0 263.71 0 194.978c0-38.939.394-65.472 1.02-68.777 3.597-18.964 18.933-33.382 38.163-35.88 4.024-.522 27.671-.963 52.548-.98l45.231-.031.609-2.75c5.282-23.85 15.263-42.487 30.855-57.619 12.664-12.289 29.268-21.535 47.297-26.337C224.257.331 227.47 0 241 0c13.587 0 16.734.327 25.5 2.651 40.466 10.728 68.377 40.78 77.93 83.909l.608 2.75 45.231.03c24.877.018 48.524.46 52.548.982 19.23 2.497 34.566 16.915 38.162 35.879.627 3.305 1.021 29.838 1.021 68.777 0 68.733.073 67.77-5.48 72.138-1.498 1.178-4.238 2.426-6.09 2.773l-3.368.632-.28 87.644-.282 87.645-2.397 6c-6.045 15.13-17.706 25.189-32.902 28.385-8.07 1.698-374.87 1.403-381.701-.306zm379.284-30.567c3.27-1.485 4.744-2.958 6.228-6.228 1.876-4.133 1.945-7.25 1.966-88.534l.022-84.25H286v9.55c0 10.292-.904 13.168-5.484 17.45l-2.675 2.5-35.67.266c-34.217.256-35.804.185-38.93-1.74-5.775-3.558-7.233-7.239-7.237-18.276l-.004-9.75H45l.022 84.25c.021 81.284.09 84.4 1.966 88.534 1.484 3.27 2.958 4.743 6.228 6.228 4.193 1.903 8.173 1.944 187.784 1.944 179.61 0 183.59-.041 187.784-1.944zM256 255.31v-15h-30v30h30zm-60-24.852c0-8.578.294-10.292 2.27-13.25 4.516-6.76 5.35-6.895 42.73-6.895 37.38 0 38.214.134 42.73 6.895 1.976 2.958 2.27 4.672 2.27 13.25v9.852h166v-54.184c0-51.947-.082-54.354-1.979-58.272-1.088-2.248-3.45-4.978-5.25-6.066-3.23-1.953-5.778-1.978-203.771-1.978s-200.54.025-203.771 1.978c-1.8 1.088-4.162 3.818-5.25 6.066-1.897 3.918-1.979 6.325-1.979 58.272v54.184h166zM313.346 84.06c-5.762-19.567-20.719-37.43-38.757-46.286-12.66-6.216-19.716-7.869-33.589-7.869-14.027 0-21.072 1.676-33.8 8.04-18.565 9.28-33.534 27.55-39.015 47.615l-1.024 3.75h147.731z" style="fill:#000"/></svg>