<svg xmlns="http://www.w3.org/2000/svg" width="50" height="50">
   <path d="M17.8 49.76c-.13-.132-.236-2.851-.236-6.04.001-5.039.088-5.947.668-6.912.653-1.09 2.619-2.316 3.716-2.316.46 0 .404-.29-.32-1.676-2.034-3.895-.289-8.061 3.378-8.061 3.671 0 5.404 4.055 3.427 8.025l-.822 1.657 1.167.222c1.619.309 3.225 1.792 3.657 3.373.556 2.039.472 10.6-.111 11.414-.278.387-.658.552-.908.394-.321-.202-.29-.374.124-.685.463-.35.538-1.258.464-5.647-.081-4.764-.16-5.33-.886-6.365-.438-.626-1.274-1.306-1.856-1.513-1.128-.4-1.488-.087-3.365 2.92-.34.545-.72.988-.845.982-.18-.007-1.632-2.015-2.927-4.047-.365-.574-2.774.815-3.337 1.924-.617 1.214-.762 11.87-.162 11.87a.354.36 0 0 1 .354.36c0 .406-.82.49-1.18.12zm8.24-12.875c.404-.668.737-1.319.737-1.443 0-.126-.798-.229-1.772-.229-.975 0-1.772.113-1.772.248 0 .384 1.564 2.633 1.832 2.635.13.003.569-.544.974-1.211zm.404-2.765c1.662-.905 2.598-4.62 1.682-6.67-1.106-2.469-4.683-2.572-6.075-.174-1.948 3.356 1.354 8.5 4.393 6.844zm-5.692 11.192c0-2.886.136-4.689.355-4.689.217 0 .354 1.684.354 4.328v4.328h7.088v-4.125c0-2.362.151-4.222.354-4.35.23-.145.354 1.439.354 4.487V50h-8.505Zm-8.842-3.877c-2.917-2.984-4.219-5.239-5.145-8.912-.541-2.143-.735-6.837-.328-7.918.468-1.24.688-.451.554 1.978a18.671 19.002 0 0 0 1.761 9.26c1.097 2.356 4.274 6.159 6.019 7.208 1.134.682 1.321 1.179.445 1.179-.315 0-1.803-1.258-3.306-2.795zm22.309 2.668c0-.07.945-.883 2.102-1.807 2.509-2.006 4.97-5.62 6.05-8.886.59-1.785.774-3.181.768-5.86-.008-3.877.43-4.686.78-1.443.339 3.108-.38 7.053-1.82 10.008-1.321 2.708-3.104 5.031-5.11 6.657-1.518 1.23-2.77 1.832-2.77 1.33zM2.109 20.995c-.106-.283-.141-2.73-.077-5.44l.116-4.925 1.158-1.053C3.942 9 4.753 8.526 5.107 8.526c1.012 0 1.075-.293.363-1.713C3.87 3.62 5.28.183 8.218.104c1.927-.051 3.19.862 3.73 2.696.374 1.272.349 1.735-.172 3.157-.335.917-.645 1.803-.69 1.968-.044.164.465.489 1.128.721 2.216.773 2.675 1.882 2.81 6.79.131 4.778-.047 6.074-.834 6.074-.596 0-.704-.567-.171-.902.561-.353.443-7.925-.147-9.36-.499-1.217-1.462-2.001-2.454-2.001-.288 0-.976.73-1.53 1.623-.553.892-1.192 1.623-1.417 1.623-.226 0-.864-.73-1.418-1.622-1.186-1.91-1.901-2.032-3.338-.57L2.68 11.357v4.716c0 2.903.136 4.716.354 4.716a.354.36 0 0 1 .355.36c0 .556-1.06.428-1.28-.153zM9.76 9.418c.004-.214-.585-.312-1.407-.233l-1.416.137.762 1.09.76 1.087.647-.856c.355-.47.65-1.02.654-1.225Zm.342-1.953c1.957-1.993 1.657-5.433-.556-6.374-3.45-1.468-5.473 3.338-2.711 6.443.745.838 2.41.802 3.267-.069ZM4.805 17.542c0-2.404.14-3.967.354-3.967.213 0 .355 1.442.355 3.606v3.607h6.024V17.18c0-2.164.142-3.606.355-3.606.215 0 .354 1.563.354 3.967v3.967H4.805Zm30.468 3.043c-.385-1.035-.459-6.447-.114-8.566.269-1.659 1.775-3.306 3.307-3.617l1.098-.225-.764-1.051c-.884-1.217-1.075-4.05-.363-5.393.58-1.093 2.647-1.969 3.96-1.676.56.124 1.42.715 1.913 1.31 1.131 1.37 1.223 3.9.203 5.604l-.69 1.15 1.21.407c.666.224 1.62.901 2.118 1.504.892 1.078.906 1.184.809 6.192-.091 4.772-.142 5.105-.806 5.226-.573.105-.624.04-.266-.338.308-.324.443-1.876.443-5.057 0-4.41-.036-4.632-.917-5.698-1.27-1.535-2.077-1.413-3.411.513-.618.892-1.245 1.623-1.393 1.623-.149 0-.763-.73-1.367-1.623-1.262-1.869-1.995-2.018-3.318-.672-.915.931-.934 1.05-.934 5.698 0 3.212.137 4.888.425 5.18.33.338.29.433-.186.433-.336 0-.767-.416-.957-.924zm7.15-10.224.583-1.045-1.38-.133c-.76-.075-1.383-.075-1.383 0 0 .285 1.226 2.228 1.407 2.226.103 0 .451-.473.773-1.049zm1.264-3.601c2.084-3.16-.127-6.986-3.267-5.65-1.395.594-1.989 2.156-1.561 4.115.655 3.009 3.3 3.85 4.828 1.535zm-5.925 10.983c0-2.12.155-3.862.355-3.988.227-.142.354 1.079.354 3.406v3.627h6.025V17.18c0-2.164.141-3.606.354-3.606.215 0 .354 1.563.354 3.967v3.967h-7.442Zm-20.73-7.26c3.138-2.416 14.23-2.321 16.208.138.388.482.332.518-.439.274-4.592-1.459-5.955-1.695-8.71-1.516-1.602.103-3.71.513-4.784.928-2.327.9-3.317.976-2.276.175z" style="fill:#c2dfff;stroke-width:.999996"/>
</svg>