<svg xmlns="http://www.w3.org/2000/svg" width="42.24" height="44.8">
<path d="M14.268 44.152c-.118-.117-.213-2.53-.213-5.36.001-4.47.08-5.276.603-6.132.59-.968 2.365-2.055 3.356-2.055.415 0 .365-.257-.289-1.487-1.837-3.456-.261-7.153 3.05-7.153 3.315 0 4.88 3.598 3.095 7.121l-.743 1.47 1.054.197c1.462.274 2.912 1.59 3.302 2.993.502 1.809.427 9.406-.1 10.127-.251.344-.594.49-.82.35-.29-.179-.262-.332.112-.608.418-.31.486-1.116.419-5.01-.073-4.227-.144-4.73-.8-5.648-.395-.555-1.15-1.159-1.676-1.342-1.018-.355-1.343-.078-3.038 2.59-.308.484-.65.877-.763.872-.163-.006-1.474-1.788-2.643-3.591-.33-.509-2.505.723-3.014 1.707-.557 1.077-.688 10.532-.146 10.532a.32.32 0 0 1 .32.32c0 .36-.74.434-1.066.107zm7.44-11.424c.366-.593.666-1.17.666-1.28 0-.112-.72-.203-1.6-.203-.88 0-1.6.1-1.6.22 0 .34 1.412 2.336 1.654 2.338.118.002.514-.483.88-1.075zm.366-2.453c1.5-.803 2.346-4.1 1.518-5.919-.998-2.19-4.228-2.282-5.485-.154-1.759 2.978 1.222 7.542 3.967 6.073zm-5.14 9.93c0-2.56.123-4.16.32-4.16.196 0 .32 1.494.32 3.84v3.84h6.4v-3.66c0-2.096.137-3.746.32-3.86.207-.128.32 1.277.32 3.982v4.178h-7.68zm-7.984-3.44c-2.634-2.647-3.81-4.648-4.646-7.907-.489-1.902-.664-6.067-.296-7.026.422-1.1.621-.4.5 1.755a16.86 16.86 0 0 0 1.59 8.217c.991 2.09 3.859 5.464 5.435 6.395 1.024.605 1.193 1.046.402 1.046-.285 0-1.628-1.116-2.985-2.48zm20.144 2.368c0-.062.854-.784 1.898-1.604 2.266-1.78 4.488-4.986 5.464-7.884.533-1.584.698-2.823.693-5.2-.007-3.44.388-4.158.705-1.28.305 2.758-.344 6.258-1.645 8.88-1.192 2.403-2.802 4.464-4.614 5.907-1.37 1.091-2.5 1.625-2.5 1.18zM.1 18.629c-.096-.251-.128-2.423-.07-4.827l.105-4.37 1.045-.934c.575-.513 1.307-.933 1.627-.933.913 0 .97-.26.327-1.52C1.69 3.213 2.963.163 5.616.093c1.74-.046 2.88.764 3.368 2.392.338 1.128.315 1.539-.155 2.801-.303.814-.583 1.6-.623 1.746-.04.146.419.434 1.018.64 2.001.686 2.416 1.67 2.538 6.024.118 4.24-.043 5.39-.754 5.39-.538 0-.635-.503-.154-.8.507-.314.4-7.032-.133-8.305-.45-1.08-1.32-1.776-2.216-1.776-.26 0-.881.648-1.381 1.44-.5.792-1.077 1.44-1.28 1.44-.204 0-.78-.647-1.28-1.439-1.071-1.695-1.717-1.803-3.014-.505l-.936.935v4.185c0 2.576.123 4.184.32 4.184a.32.32 0 0 1 .32.32c0 .493-.957.38-1.155-.136zM7.007 8.357c.004-.19-.528-.277-1.27-.207l-1.279.122.688.966.687.965.584-.759c.32-.417.586-.906.59-1.087Zm.309-1.733C9.083 4.856 8.812 1.803 6.814.968 3.698-.334 1.872 3.93 4.366 6.685c.673.744 2.176.712 2.95-.061Zm-4.782 8.941c0-2.133.126-3.52.32-3.52.192 0 .32 1.28.32 3.2v3.2h5.44v-3.2c0-1.92.128-3.2.32-3.2.194 0 .32 1.387.32 3.52v3.52h-6.72Zm27.512 2.7c-.348-.918-.414-5.72-.103-7.6.243-1.472 1.603-2.934 2.986-3.21l.992-.199-.69-.933c-.798-1.08-.971-3.594-.328-4.785.524-.97 2.39-1.747 3.576-1.487.505.11 1.282.634 1.727 1.163 1.022 1.215 1.105 3.46.184 4.972l-.623 1.02 1.093.361c.601.199 1.462.8 1.912 1.335.805.956.818 1.05.73 5.494-.082 4.234-.128 4.529-.728 4.637-.517.093-.563.035-.24-.3.278-.288.4-1.665.4-4.487 0-3.913-.032-4.11-.828-5.056-1.146-1.362-1.875-1.254-3.08.455-.558.792-1.124 1.44-1.258 1.44-.134 0-.689-.648-1.234-1.44-1.14-1.658-1.802-1.79-2.996-.596-.826.826-.844.931-.844 5.056 0 2.85.124 4.337.384 4.596.299.3.262.384-.168.384-.303 0-.692-.369-.864-.82zm6.456-9.071.527-.928-1.247-.118c-.686-.066-1.248-.066-1.248 0 0 .253 1.107 1.977 1.27 1.975.093 0 .408-.419.698-.93zm1.142-3.196c1.882-2.803-.115-6.198-2.95-5.013-1.26.527-1.796 1.913-1.41 3.651.592 2.67 2.98 3.416 4.36 1.362Zm-5.35 9.746c0-1.882.14-3.427.32-3.539.205-.126.32.957.32 3.022v3.218h5.44v-3.2c0-1.92.128-3.2.32-3.2.194 0 .32 1.387.32 3.52v3.52h-6.72zm-18.72-6.443c2.834-2.143 12.85-2.059 14.636.123.351.428.3.46-.396.243-4.147-1.294-5.377-1.504-7.865-1.345-1.447.092-3.35.455-4.32.824-2.101.798-2.995.866-2.055.155z" style="fill:#000;stroke-width:1"/>
</svg>