<svg xmlns="http://www.w3.org/2000/svg" width="200" height="370" viewBox="0 0 52.917 97.896">
    <path d="M36.276 97.698c-2.415-.366-5.326-1.398-7.467-2.647-1.89-1.103-4.782-3.787-5.076-4.71-.133-.418-.406-.52-1.4-.526-5.077-.027-10.692-4.284-12.692-9.622-.299-.799-.67-2.274-.827-3.278-.271-1.747-.355-1.898-1.945-3.518-2.229-2.27-3.578-4.929-3.578-7.049 0-.84.121-1.846.27-2.235.24-.633.155-.83-.815-1.88-.595-.646-1.458-1.966-1.917-2.934C.04 57.636-.006 57.37 0 54.508c.006-2.616.094-3.23.642-4.48 1.12-2.557 2.048-3.687 3.585-4.366 2.061-.91 5.443-1.53 7.213-1.322 4.86.57 8.48 5.19 7.121 9.088-.162.464-.243.894-.181.956.062.062 1.153-.026 2.423-.196 5.317-.71 9.414 1.165 11.474 5.25.308.61.56 1.217.56 1.347 0 .131-1.039.3-2.309.377-3.025.182-4.929.914-6.785 2.609-2.074 1.893-3.103 4.086-3.252 6.927-.082 1.558.013 2.613.337 3.726l.452 1.552-.619.4c-2.24 1.45-4.166 4.257-4.566 6.66l-.165.988h1.067c.943 0 1.067-.072 1.067-.617 0-1.18 1.565-3.826 2.839-4.798 3.117-2.377 6.704-2.087 9.786.793l1.299 1.214-.96 1.87c-.922 1.793-.961 1.98-.961 4.58 0 1.491.07 2.781.155 2.866.085.086.502.034.927-.114.77-.268.772-.276.77-2.439-.002-2.483.612-4.184 2.052-5.684 1.476-1.539 2.68-2.015 5.065-2.006 1.841.007 2.342.12 3.931.887l1.821.877.482-.625c.264-.344.484-.72.487-.836.003-.116-.914-.65-2.039-1.186-1.936-.924-2.184-.976-4.682-.976-2.352 0-2.8.08-4.135.735l-1.497.734-1.273-1.238c-.7-.682-2.044-1.605-2.988-2.052-1.489-.707-2-.813-3.89-.81l-2.177.004-.318-.926c-.545-1.583-.401-4.958.27-6.337 1.335-2.75 3.362-4.233 6.457-4.727 1.834-.293 4.386-.057 5.43.501.87.466 1.007.339 1.176-1.087.358-3.02 2.635-5.983 5.714-7.436 2.843-1.342 6.474-1.28 9.84.166l1.272.547-.096 14.916c-.105 16.515-.064 16.08-1.913 19.998-2.435 5.158-8.178 7.858-14.632 6.88zm2.628-5.9v-2.24h-2.242c-2.435 0-2.508.055-1.962 1.498.547 1.446 2.431 2.942 3.742 2.972.405.009.462-.269.462-2.23zm-1.75.944c-.888-.541-1.68-1.51-1.68-2.057 0-.228.425-.337 1.32-.337h1.319v1.45c0 .797-.03 1.449-.066 1.448-.037 0-.438-.227-.893-.504zm5.182-.351c1.56-1.06 1.976-1.874 1.976-3.861 0-1.544-.098-1.909-.74-2.748-.952-1.248-1.966-1.758-3.494-1.758-2.275 0-4.188 1.495-4.519 3.533l-.153.947h4.553v2.064c0 1.135.08 2.143.176 2.24.352.351 1.349.162 2.201-.417zm8.307-22.335c.09-.145-.022-.263-.248-.263-.355 0-.411-.561-.411-4.085v-4.085h-2.097l-.073 3.997c-.052 2.85-.165 4.028-.394 4.104-.236.079-.34-.677-.395-2.877l-.075-2.984-.98-.081-.981-.081-.075 2.98c-.061 2.44-.146 2.98-.47 2.98-.297 0-.416-.38-.475-1.515l-.08-1.516H42.097l-.08 1.516c-.059 1.136-.177 1.515-.474 1.515-.314 0-.412-.453-.473-2.19l-.077-2.189-.978.081-.978.081-.077 2.175c-.042 1.195-.19 2.174-.33 2.174a.26.26 0 0 0-.253.263c0 .168 2.193.264 6.052.264 3.75 0 6.114-.1 6.215-.264zm-6.77-5.798c.12-.894 1.32-2.108 2.084-2.108.463 0 .723-.236 1.006-.913.412-.986 1.171-1.544 1.78-1.31.428.163 1.24-.53 1.24-1.058 0-.497-.689-.994-1.233-.889-.257.05-.6.355-.762.679-.532 1.067-1.23 1.663-1.755 1.497-.64-.203-1.262.318-1.262 1.058 0 .757-.964 1.614-2.041 1.816-1.102.206-1.635-.01-1.93-.784-.291-.767-1.427-.853-1.81-.137-.366.683.36 1.704 1.055 1.483.775-.245 1.564.114 1.84.838.35.92 1.658.793 1.788-.172zM8.702 57.93c.09-.147.276-.2.412-.116.343.212.804-1.112.628-1.808-.202-.804-1.262-1.267-2.049-.896-1.25.588-1.283 2.197-.06 2.791.71.345.871.349 1.069.03zm-1.014-.962c-.311-.31-.188-.89.223-1.048.52-.2 1.193.366 1.008.848-.149.387-.919.512-1.231.2zm4.796-1.03c.488-.243.832-.617.832-.906 0-.27.126-.57.28-.666.19-.117.16-.315-.091-.608-.205-.24-.45-.65-.543-.913-.094-.263-.295-.401-.448-.307-.152.094-.455.024-.672-.156-.3-.249-.47-.254-.7-.023-.169.168-.52.305-.781.305-.32 0-.475.198-.475.606 0 .333-.148.756-.33.939-.264.266-.237.384.132.593.254.143.462.5.462.792 0 .404.121.493.505.371.278-.088.582-.037.675.114.214.346.167.352 1.154-.14zm-1.638-1.298c-.245-.636.105-1.185.755-1.185.704 0 1.065.697.632 1.219-.4.48-1.197.461-1.387-.034zm-3.015-.428c.054-.164.39-.312.747-.33.502-.025.668-.197.732-.757.046-.399.194-.725.33-.725.135 0 .246-.237.246-.527 0-.29-.11-.527-.246-.527s-.284-.326-.33-.724c-.067-.583-.2-.709-.679-.642-.355.049-.659-.084-.753-.33-.185-.48-.803-.55-.95-.108-.057.167-.336.32-.621.342-.799.058-1.132.36-.991.9.077.293-.039.554-.289.65-.528.202-.541.862-.021 1.062.218.083.396.465.396.85 0 .563.1.671.518.562.284-.075.655.03.823.233.368.443.951.48 1.088.07zm-1.223-1.699c-.542-.54-.524-.723.128-1.312.654-.592 1.386-.27 1.525.67.145.985-.903 1.392-1.653.642zm27.41 5.937c-.848-1.671-2.763-3.767-4.206-4.601-1.014-.587-2.791-1.214-4.48-1.58l-.778-.169 1.435-.784c.79-.431 1.778-1.105 2.197-1.497 1.097-1.028 2.007-3.111 2.01-4.602l.003-1.254 1.419.8c2.724 1.535 4.625 2.143 7.155 2.286 3.195.181 4.922-.443 7.002-2.532 1.464-1.47 3.068-4.172 2.692-4.537-.109-.105-.517-.27-.906-.367-.644-.159-.768-.058-1.358 1.102-1.862 3.66-5.214 5.198-9.15 4.196-1.897-.483-5.667-2.294-5.667-2.722 0-.15.769-.79 1.709-1.422 2.971-1.996 3.967-3.929 3.96-7.684-.004-2.092-.531-4.07-1.69-6.335l-.92-1.802 1.392-1.36c.766-.748 1.726-1.864 2.133-2.48.407-.616.852-1.12.987-1.12.136 0 .624.277 1.086.616 1.414 1.039 2.562 1.36 4.797 1.347 2.076-.013 4.089-.464 4.089-.917 0-.127-.142-.541-.314-.92-.239-.522-.446-.65-.858-.53-2.417.704-4.522.62-6.203-.25-1.439-.742-3.153-3.186-3.561-5.075-.227-1.05-.466-1.21-1.469-.99-.689.151-.765.258-.626.876.087.387.491 1.434.897 2.326l.74 1.622-1.023 1.563c-3.772 5.767-9.363 7.112-15.097 3.632-.842-.51-1.568-.929-1.614-.929-.047 0-.54.779-1.097 1.73-1.312 2.24-3.318 4.245-5.052 5.046-1.736.801-4.349 1.223-5.744.926l-1.055-.225.053-1.828C7 24.707 8.414 21.73 11.08 19.211c1.75-1.653 3.713-2.594 5.886-2.821 1.533-.16 1.626-.21 1.626-.857 0-1.243 1.51-3.957 3.023-5.431C23.729 8.039 26.01 7 28.707 6.872c1.427-.07 2.504.021 3.197.269l1.045.372.883-1.473C36.258 1.995 40.33-.31 44.44.034c3.79.317 6.259 2.375 7.761 6.47.535 1.458.548 1.981.625 24.383.076 21.896.059 22.886-.392 22.703-4.502-1.822-7.785-1.837-11.532-.053-2.266 1.079-4.06 2.695-5.276 4.75l-.91 1.538zM30.83 20.622c.088-.23.16-.772.16-1.207v-.79l-2.044.14c-1.125.078-2.223.14-2.44.14-.218 0-1.316-.062-2.44-.14l-2.045-.14v1.031c0 .567.08 1.11.176 1.207.097.097 2.043.176 4.324.176 3.54 0 4.172-.061 4.309-.417zm-4.06-2.35c0-.218-.12-.396-.264-.396-.146 0-.264.178-.264.396 0 .217.118.395.264.395.145 0 .263-.178.263-.395zm-1.056-.631c0-.46.875-.561 1.327-.153.34.307.895.394 2.138.336l1.68-.08V15.11l-1.043-.085c-.69-.056-1.245-.302-1.637-.725-.838-.903-2.518-.894-3.365.02-.457.492-.88.658-1.674.658-1.12 0-1.383.277-1.383 1.45 0 1.31.206 1.45 2.139 1.45 1 0 1.818-.107 1.818-.236zm-.527-2.91c0-.382.985-.601 1.852-.411 1.233.27.92.657-.533.657-.726 0-1.32-.11-1.32-.245zm24.005-1.024c0-1.231-.805-3.207-1.49-3.655-.609-.398-.636-.53-.564-2.798.055-1.74.174-2.412.44-2.5.274-.091.335.084.244.703-.075.506-.007.824.176.824.171 0 .291-.434.284-1.028l-.013-1.028-1.882-.663-1.882-.664-1.807.655c-.995.36-1.855.703-1.912.76-.057.057.209.245.59.419.673.306.694.385.694 2.652 0 2.223-.031 2.347-.633 2.576-.783.297-1.645 2.676-1.508 4.16.023.25 1.146.33 4.647.33h4.616v-.743zm-5.405-2.989c-.524-.554-.655-.86-.453-1.062.201-.201.137-.481-.222-.972-.278-.38-.537-.97-.576-1.313-.062-.544.098-.669 1.248-.975 1.198-.32 1.38-.307 1.979.134.74.545.777 1.41.094 2.165-.232.256-.348.659-.256.896.099.259-.083.726-.456 1.169l-.622.738zM20.466 49.466c-.761-2.587-2.943-5.052-5.513-6.228-2.095-.958-5.51-1.114-8.374-.382-1.155.295-2.298.615-2.54.711-.626.25-1.104-2.255-.96-5.021.134-2.538 1.058-4.734 2.434-5.782.744-.567 1.136-.657 2.868-.657 3.843 0 6.57-.969 9.019-3.204.796-.727 1.814-1.887 2.263-2.579l.815-1.257 2.156.935c1.776.77 2.56.955 4.436 1.048 2.143.105 3.012-.045 5.437-.939.443-.163 2.09 3.344 2.444 5.206.279 1.463.13 3.795-.319 5.007-.653 1.763-3.94 3.991-6.439 4.366l-1.118.167.474 1.106c1.114 2.596.898 4.79-.62 6.306-1.137 1.136-3.079 2.035-4.773 2.21l-1.352.139zm.71-11.363.078-1.78h-3.981v1.569c0 1.878.255 2.097 2.368 2.034l1.457-.045zm-2.924.166c-.433-.433-.117-.628 1.021-.628.85 0 1.177.098 1.1.33-.118.361-1.818.6-2.12.298zm6.424 1.471c.464-.247.51-.58.51-3.636 0-2.265-.103-3.468-.316-3.68-.174-.174-.946-.317-1.715-.317h-1.398v3.8c0 2.792.087 3.834.33 3.932.589.237 2.066.181 2.59-.099zm-2.391-3.153c0-.145.534-.263 1.187-.263s1.187.118 1.187.263c0 .145-.534.264-1.187.264s-1.187-.119-1.187-.264zm.064-1.12c.06-.18.604-.366 1.21-.41.855-.063 1.1.01 1.1.33 0 .311-.29.41-1.21.41-.848 0-1.176-.098-1.1-.33zm-1.12-1.647v-1.713h-1.661c-.941 0-1.8.137-1.979.316-.174.174-.316.945-.316 1.713v1.397h3.957zm-2.582.794c-.685-.71-.728-.926-.187-.926a.397.397 0 0 0 .395-.395.397.397 0 0 1 .792 0c0 .218.178.395.395.395.554 0 .487.301-.213.963l-.6.568z" style="stroke-width:1"/>
</svg>