<svg xmlns="http://www.w3.org/2000/svg" width="50" height="50">
   <path d="M22.324 49.24c-.167-.456-.523-1.702-.788-2.768-.266-1.065-.649-1.984-.85-2.042-.203-.057-1.17-.355-2.15-.662l-1.78-.557-2.02 1.606c-1.11.884-2.14 1.607-2.29 1.607-.242 0-4.064-2.553-4.064-2.715 0-.037.457-1.188 1.013-2.559l1.014-2.494-1.28-1.903-1.281-1.905-2.824.088-2.823.088-.623-1.797C.62 30.47.679 30.295 3.092 28.713l2.192-1.436.034-2.308.036-2.308-2.055-1.348c-1.13-.743-2.135-1.482-2.234-1.646-.1-.163.089-1.282.42-2.485l.6-2.19h5.81l1.273-1.852 1.274-1.85-1.007-2.477-1.007-2.477 1.247-1.042c2.594-2.168 2.723-2.175 4.948-.246l1.99 1.724 2.209-.706 2.208-.706.721-2.68.72-2.68h4.956l.72 2.673.722 2.673 1.96.66c1.078.36 2.06.662 2.185.667.125.006 1.103-.721 2.174-1.615s2.07-1.626 2.22-1.626c.59 0 3.752 2.622 3.752 3.11 0 .284-.393 1.499-.873 2.698l-.874 2.179 1.275 1.696 1.275 1.697 2.862.18 2.862.182.663 1.98c.364 1.09.595 2.158.512 2.376-.081.217-1.101 1.02-2.265 1.784l-2.115 1.389.032 2.295.032 2.295 2.227 1.427c1.225.786 2.227 1.563 2.227 1.728 0 .165-.323 1.268-.717 2.45l-.716 2.15-2.847-.13c-1.601-.074-2.846.015-2.846.202 0 .184-.567 1.005-1.258 1.826l-1.258 1.49.902 2.25c.495 1.238.901 2.458.901 2.713 0 .523-3.084 3.025-3.728 3.025-.23 0-1.05-.53-1.82-1.18-2.586-2.179-2.312-2.098-4.624-1.375l-2.12.664-.72 2.662-.718 2.66-2.402.108c-2.225.098-2.423.045-2.706-.722zm5.158-2.537.675-2.612 2.494-.937 2.494-.937 2.172 1.73 2.173 1.73 1.48-1.104c.812-.606 1.479-1.173 1.479-1.258 0-.086-.401-1.158-.89-2.38-1.052-2.62-1.079-2.936-.31-3.584.321-.27.965-1.103 1.43-1.851l.847-1.36h5.665l.406-1.535c.223-.844.468-1.64.546-1.768.076-.128-.902-.894-2.175-1.702l-2.312-1.472v-5.36l2.277-1.505 2.278-1.504-.576-1.824-.575-1.823-2.723.124-2.722.126-1.207-1.772a120.173 121.851 0 0 0-1.531-2.21c-.209-.282.02-1.31.64-2.879.53-1.343.897-2.507.816-2.59-.08-.08-.76-.613-1.51-1.18l-1.364-1.03-2.067 1.697-2.07 1.696-2.623-.874-2.626-.875-.445-2.037C26.938.681 26.77.487 24.838.614l-1.67.109-.64 2.167c-.898 3.047-.88 3.026-3.543 3.931l-2.4.818-2.053-1.694-2.053-1.693-1.514 1.053c-.833.578-1.514 1.117-1.514 1.195 0 .079.423 1.298.939 2.711l.938 2.569-.877.974a23.753 24.085 0 0 0-1.618 2.05c-.724 1.053-.798 1.074-3.403.964l-2.662-.112-.579 1.719c-.317.946-.577 1.77-.577 1.829 0 .059.998.75 2.22 1.538l2.219 1.43.025 2.79.027 2.79-2.246 1.429c-1.235.784-2.245 1.462-2.245 1.504 0 .041.256.835.568 1.765l.568 1.69h5.496l1.227 1.716a85.484 86.678 0 0 1 1.499 2.146c.15.237-.138 1.536-.642 2.89l-.914 2.46.998.832c1.884 1.567 1.96 1.565 3.984-.138 1.042-.878 2.08-1.592 2.304-1.587.227.005 1.44.373 2.696.818l2.286.81.691 2.613.693 2.614h3.741zm-2.8-4.462c-.386-.394-.329-2.32.067-2.32.514 0 .627.442.404 1.568-.112.564-.323.903-.47.752zm-8.45-2.772c.016-.658 1.009-1.885 1.291-1.598.286.29-.579 2.05-1.007 2.05-.163 0-.29-.203-.284-.452zm16.092-.439c-.592-1.317.152-1.505.814-.204.454.89.468 1.095.072 1.095-.267 0-.665-.401-.886-.891zm-22.16-5.6c0-.38 1.147-1.096 1.758-1.096.698 0 .39.602-.528 1.026-1.102.508-1.23.516-1.23.07zm28.236-.092c-.867-.424-1.078-1.01-.356-.993.508.014 1.692.855 1.692 1.203 0 .316-.386.255-1.336-.21zM23.717 26.03c-.35-.43-1.195-.56-3.6-.56-1.729 0-3.24-.163-3.363-.361-.14-.23.926-.362 2.946-.362 2.934 0 3.229-.067 4.02-.922.901-.972.91-1.027.996-6.054.036-2.016.186-3.1.412-2.959.203.128.356 1.976.356 4.313 0 3.254.112 4.184.553 4.554.336.283.51.901.445 1.58-.091.951-.267 1.13-1.207 1.222-.668.067-1.278-.11-1.558-.451zm2.057-1.016c.141-.748-.888-1.251-1.43-.7-.543.55-.047 1.593.69 1.45a1.01 1.024 0 0 0 .74-.751zm13.962.095c0-.2.481-.362 1.07-.362.587 0 1.068.163 1.068.362 0 .198-.481.36-1.069.36s-1.069-.162-1.069-.36zm-31.888-.362c.12-.198.69-.361 1.267-.361.576 0 1.049.163 1.049.361 0 .199-.572.362-1.27.362-.754 0-1.178-.147-1.046-.362zm2.94-7.616c-.656-.386-.85-1.054-.308-1.054.175 0 .696.32 1.158.711.913.771.296 1.02-.85.343zm27.473-.344c.915-.772 1.475-.91 1.475-.361 0 .41-1.177 1.101-1.848 1.083-.267-.006-.108-.316.373-.722zm-21.44-5.42c-.68-.984-.76-1.432-.257-1.432.448 0 1.166 1.368.993 1.894-.074.225-.404.017-.735-.462zm15.444.284c.017-.658 1.009-1.885 1.292-1.599.286.29-.58 2.05-1.008 2.05-.162 0-.29-.203-.284-.45zm-7.85-2.8c0-.74.153-1.092.435-.997.24.082.436.53.436.997 0 .468-.196.916-.435.997-.283.095-.436-.256-.436-.997z" style="fill:#c2dfff;stroke-width:1"/>
</svg>