<svg xmlns="http://www.w3.org/2000/svg" width="44.16" height="44.48">
<path d="M15.974 43.543c-.432-.432-.786-.979-.786-1.215 0-.237-.502-.612-1.116-.834-.842-.304-1.18-.654-1.378-1.424-.202-.786-.46-1.044-1.12-1.122-.922-.108-1.826-1.124-1.826-2.05 0-.375-.245-.57-.72-.574-.9-.006-1.323-.284-1.792-1.174-.547-1.039-.457-1.547.47-2.649.946-1.123 1.01-.962-1.43-3.588-.942-1.015-1.199-1.136-1.876-.878-.875.333-.917.316-3.053-1.225C.51 26.206-.091 25.577.01 25.41c.103-.165.879.208 1.725.829.846.62 1.807 1.124 2.135 1.117.4-.008 2.109-2.065 5.157-6.209 2.508-3.408 4.56-6.348 4.56-6.533 0-.403-2.818-2.606-3.333-2.606-.199 0-2.23 2.515-4.514 5.588-3.906 5.255-4.633 6.084-4.633 5.282 0-.392 7.541-10.532 8.263-11.11.824-.66 1.516-.466 3.262.914 1.477 1.167 1.641 1.417 1.476 2.24l-.185.926h2.242c1.277 0 2.741.208 3.4.483 1.084.453 1.23.44 2.31-.2 1.859-1.106 2.752-1.238 5.325-.79l2.387.415v-1.035c0-.892.24-1.2 1.729-2.226 1.223-.842 1.921-1.129 2.389-.98.54.171 9.002 11.015 9.002 11.537 0 .744-1.235-.646-4.836-5.444-2.311-3.08-4.318-5.6-4.458-5.6-.51 0-3.026 2.124-3.125 2.638-.092.481 7.035 10.534 8.78 12.383l.736.781 1.715-1.18c1.762-1.214 2.148-1.379 2.148-.915 0 .38-3.314 2.613-3.88 2.613-.26 0-.657-.18-.883-.4-.33-.322-.623-.157-1.5.849-.952 1.091-1.064 1.4-.896 2.457.163 1.017.063 1.34-.629 2.031-.453.453-1.19.823-1.637.823-.576 0-.815.172-.815.584 0 .845-1.34 1.976-2.34 1.976-.646 0-.86.159-.86.64 0 .943-1.14 1.92-2.24 1.92-.598 0-.96.165-.96.437 0 .24-.298.816-.663 1.28-.8 1.018-1.961 1.094-3.392.222l-1.015-.62-1.47 1.572c-2.305 2.465-3.205 2.753-4.514 1.443zm3.6-1.534c1.543-1.575 1.826-2.07 1.732-3.029-.056-.577-1.251-1.115-1.97-.887-.639.203-3.508 3.495-3.508 4.025 0 .437 1.221 1.57 1.691 1.57.226 0 1.151-.755 2.056-1.68zm-1.71-3.681c1.168-1.277 2.124-2.475 2.124-2.661 0-.857-.711-1.578-1.557-1.578-.708 0-1.341.497-3.029 2.375-2.255 2.51-2.558 3.371-1.457 4.143.96.672 1.512.35 3.919-2.28zm7.939 2.271c1.184-1.07.718-1.847-2.063-3.434-.84-.48-1.44-1.013-1.334-1.185.115-.185.604-.066 1.208.296 3.43 2.057 4.094 2.352 4.854 2.161.928-.232 1.392-1.554.798-2.27-.217-.262-1.457-1.062-2.756-1.78-1.299-.716-2.362-1.437-2.362-1.6 0-.492.293-.372 3.576 1.462 1.733.968 3.318 1.76 3.522 1.76.59 0 1.542-1.005 1.542-1.626 0-.723-.858-1.385-4.107-3.17-2.398-1.317-3.12-1.924-2.29-1.924.176 0 1.97.936 3.985 2.08 2.015 1.144 3.839 2.08 4.053 2.08.593 0 1.56-.992 1.56-1.6 0-.298-.253-.763-.56-1.035-.835-.737-13.766-7.927-14.236-7.915-.223.005-.98.365-1.685.798-2.172 1.338-4.925.89-5.916-.962-.644-1.202-.266-1.637 3.172-3.647 3.53-2.064 3.454-2.391-.586-2.55l-2.818-.11-3.856 5.223-3.856 5.223.607.808a49.181 49.181 0 0 0 1.715 2.084l1.108 1.278 1.07-1.038c.703-.68 1.387-1.037 1.99-1.037.977 0 2.09.785 2.09 1.473 0 .323.216.338.989.069.83-.29 1.124-.243 1.84.29.468.35.923 1.046 1.012 1.547.113.64.397.968.955 1.1 1.17.276 1.847 1.649 1.4 2.836-.322.85-.282.972.421 1.293.427.194.985.852 1.24 1.462.444 1.063 1.717 2.05 2.678 2.077.25.007.718-.225 1.04-.517zm-10.676-4.886c2.408-2.654 2.74-3.52 1.64-4.29-1.012-.71-1.588-.378-4.078 2.344-2.268 2.48-2.672 3.343-1.917 4.098.956.955 2.007.436 4.355-2.152zm-3.326-2.024c1.771-1.985 2.14-2.959 1.403-3.696-.806-.806-1.758-.38-3.725 1.668-1.084 1.129-1.97 2.234-1.97 2.455 0 .676 1.016 1.573 1.783 1.573.486 0 1.314-.66 2.51-2zm25.93-6.918c-.084-.241-1.77-2.633-3.747-5.316l-3.596-4.878-2.24-.417c-3.64-.676-3.861-.618-9.101 2.409-2.651 1.53-4.915 2.937-5.03 3.124-.116.187.246.749.805 1.248 1.328 1.186 2.553 1.169 4.714-.068l1.706-.976 7.133 3.996 7.133 3.996 1.187-1.34c.653-.737 1.12-1.537 1.036-1.778zM13.109 6.89c-1.174-1.408-2.078-2.728-2.01-2.935.114-.34 4.73 4.824 4.73 5.293 0 .63-.823-.084-2.72-2.358zm14.88 2.295c0-.175.877-1.375 1.95-2.667 2.495-3.006 2.425-2.937 2.64-2.59.1.163-.763 1.435-1.918 2.828-2.077 2.505-2.673 3.046-2.673 2.429zM17.041 4.57c-.652-1.802-1.068-3.395-.923-3.54.242-.242 2.59 5.598 2.59 6.445 0 1.08-.607.025-1.667-2.905zm7.99 3.095c-.22-.22 1.876-6.212 2.337-6.68.563-.572.31.688-.712 3.551-1.063 2.976-1.308 3.447-1.626 3.13ZM21.587 3.51c0-2.384.114-3.629.32-3.501.182.112.32 1.71.32 3.699 0 2.12-.126 3.5-.32 3.5-.195 0-.32-1.445-.32-3.698z" style="fill:#C2DFFF;stroke-width:1"/>
</svg>